SplineFontDB: 3.0
FontName: TamzenCode7x14
FullName: Tamzen Code 7x14
FamilyName: TamzenCode7x14
Weight: Regular
Copyright: (c) 2015 Scott Fial
Version: 1.11
ItalicAngle: 0
UnderlinePosition: -150
UnderlineWidth: 100
Ascent: 1000
Descent: 300
InvalidEm: 0
sfntRevision: 0x00011c29
LayerCount: 2
Layer: 0 1 "Back" 1
Layer: 1 1 "Fore" 0
XUID: [1021 264 -769995593 25219]
StyleMap: 0x0020
FSType: 0
OS2Version: 3
OS2_WeightWidthSlopeOnly: 0
OS2_UseTypoMetrics: 0
CreationTime: 1539872854
ModificationTime: 1564315562
PfmFamily: 49
TTFWeight: 400
TTFWidth: 5
LineGap: 0
VLineGap: 0
Panose: 0 0 0 0 0 0 0 0 0 0
OS2TypoAscent: 1000
OS2TypoAOffset: 0
OS2TypoDescent: -300
OS2TypoDOffset: 0
OS2TypoLinegap: 0
OS2WinAscent: 1000
OS2WinAOffset: 0
OS2WinDescent: 300
OS2WinDOffset: 0
HheadAscent: 1000
HheadAOffset: 0
HheadDescent: -300
HheadDOffset: 0
OS2SubXSize: 1400
OS2SubYSize: 1400
OS2SubXOff: 0
OS2SubYOff: 700
OS2SupXSize: 1400
OS2SupYSize: 1400
OS2SupXOff: 0
OS2SupYOff: 700
OS2StrikeYSize: 100
OS2StrikeYPos: 550
OS2CapHeight: 800
OS2XHeight: 600
OS2Vendor: 'KBnP'
OS2CodePages: 00000000.00000000
OS2UnicodeRanges: 00000003.00000000.00000000.00000000
MarkAttachClasses: 1
DEI: 91125
ShortTable: maxp 16
  1
  0
  191
  132
  33
  0
  0
  2
  0
  0
  0
  0
  0
  0
  0
  0
EndShort
LangName: 1033 "" "" "" "" "" "1.11" "" "" "Misc" "" "" "http://www.kreativekorp.com/software/bitsnpicas/"
Encoding: UnicodeBmp
UnicodeInterp: none
NameList: AGL For New Fonts
DisplaySize: -48
AntiAlias: 1
FitToEm: 0
WinInfo: 0 30 16
BeginPrivate: 0
EndPrivate
TeXData: 1 0 0 524288 262144 174762 449390 1048576 174762 783286 444596 497025 792723 393216 433062 380633 303038 157286 324010 404750 52429 2506097 1059062 262144
BeginChars: 65537 191

StartChar: .null
Encoding: 0 -1 1
AltUni2: 000000.ffffffff.0
Width: 700
VWidth: 1400
Flags: W
LayerCount: 2
Fore
SplineSet
100 0 m 1,0,-1
 100 800 l 1,1,-1
 700 800 l 1,2,-1
 700 0 l 1,3,-1
 100 0 l 1,0,-1
500 100 m 1,4,-1
 500 700 l 1,5,-1
 300 700 l 1,6,-1
 300 100 l 1,7,-1
 500 100 l 1,4,-1
EndSplineSet
Validated: 1
EndChar

StartChar: nonmarkingreturn
Encoding: 13 13 2
Width: 700
VWidth: 1400
Flags: W
LayerCount: 2
Fore
SplineSet
400 300 m 1,0,-1
 400 -300 l 1,1,-1
 200 -300 l 1,2,-1
 200 400 l 1,3,-1
 700 400 l 1,4,-1
 700 300 l 1,5,-1
 400 300 l 1,0,-1
EndSplineSet
Validated: 1
EndChar

StartChar: uni0002
Encoding: 2 2 4
Width: 700
VWidth: 1400
Flags: W
LayerCount: 2
Fore
SplineSet
0 100 m 1,0,-1
 0 200 l 1,1,-1
 100 200 l 1,2,-1
 100 100 l 1,3,-1
 0 100 l 1,0,-1
0 -200 m 1,4,-1
 0 -100 l 1,5,-1
 100 -100 l 1,6,-1
 100 -200 l 1,7,-1
 0 -200 l 1,4,-1
0 400 m 1,8,-1
 0 500 l 1,9,-1
 100 500 l 1,10,-1
 100 400 l 1,11,-1
 0 400 l 1,8,-1
0 700 m 1,12,-1
 0 800 l 1,13,-1
 100 800 l 1,14,-1
 100 700 l 1,15,-1
 0 700 l 1,12,-1
0 1000 m 1,16,-1
 0 1100 l 1,17,-1
 100 1100 l 1,18,-1
 100 1000 l 1,19,-1
 0 1000 l 1,16,-1
300 1100 m 1,20,-1
 400 1100 l 1,21,-1
 400 1000 l 1,22,-1
 300 1000 l 1,23,-1
 300 1100 l 1,20,-1
300 100 m 1,24,-1
 300 200 l 1,25,-1
 400 200 l 1,26,-1
 400 100 l 1,27,-1
 300 100 l 1,24,-1
300 0 m 1,28,-1
 200 0 l 1,29,-1
 200 100 l 1,30,-1
 300 100 l 1,31,-1
 300 0 l 1,28,-1
300 -200 m 1,32,-1
 300 -100 l 1,33,-1
 400 -100 l 1,34,-1
 400 -200 l 1,35,-1
 300 -200 l 1,32,-1
300 400 m 1,36,-1
 300 500 l 1,37,-1
 400 500 l 1,38,-1
 400 400 l 1,39,-1
 300 400 l 1,36,-1
300 300 m 1,40,-1
 200 300 l 1,41,-1
 200 400 l 1,42,-1
 300 400 l 1,43,-1
 300 300 l 1,40,-1
300 -300 m 1,44,-1
 200 -300 l 1,45,-1
 200 -200 l 1,46,-1
 300 -200 l 1,47,-1
 300 -300 l 1,44,-1
300 700 m 1,48,-1
 300 600 l 1,49,-1
 200 600 l 1,50,-1
 200 700 l 1,51,-1
 300 700 l 1,48,-1
300 1000 m 1,52,-1
 300 900 l 1,53,-1
 200 900 l 1,54,-1
 200 1000 l 1,55,-1
 300 1000 l 1,52,-1
300 800 m 1,56,-1
 400 800 l 1,57,-1
 400 700 l 1,58,-1
 300 700 l 1,59,-1
 300 800 l 1,56,-1
600 100 m 1,60,-1
 600 200 l 1,61,-1
 700 200 l 1,62,-1
 700 100 l 1,63,-1
 600 100 l 1,60,-1
600 0 m 1,64,-1
 500 0 l 1,65,-1
 500 100 l 1,66,-1
 600 100 l 1,67,-1
 600 0 l 1,64,-1
600 -200 m 1,68,-1
 600 -100 l 1,69,-1
 700 -100 l 1,70,-1
 700 -200 l 1,71,-1
 600 -200 l 1,68,-1
600 400 m 1,72,-1
 600 500 l 1,73,-1
 700 500 l 1,74,-1
 700 400 l 1,75,-1
 600 400 l 1,72,-1
600 300 m 1,76,-1
 500 300 l 1,77,-1
 500 400 l 1,78,-1
 600 400 l 1,79,-1
 600 300 l 1,76,-1
600 -300 m 1,80,-1
 500 -300 l 1,81,-1
 500 -200 l 1,82,-1
 600 -200 l 1,83,-1
 600 -300 l 1,80,-1
600 700 m 1,84,-1
 600 600 l 1,85,-1
 500 600 l 1,86,-1
 500 700 l 1,87,-1
 600 700 l 1,84,-1
600 1000 m 1,88,-1
 600 900 l 1,89,-1
 500 900 l 1,90,-1
 500 1000 l 1,91,-1
 600 1000 l 1,88,-1
600 800 m 1,92,-1
 700 800 l 1,93,-1
 700 700 l 1,94,-1
 600 700 l 1,95,-1
 600 800 l 1,92,-1
600 1100 m 1,96,-1
 700 1100 l 1,97,-1
 700 1000 l 1,98,-1
 600 1000 l 1,99,-1
 600 1100 l 1,96,-1
100 200 m 1,100,-1
 100 300 l 1,101,-1
 200 300 l 1,102,-1
 200 200 l 1,103,-1
 100 200 l 1,100,-1
100 -100 m 1,104,-1
 100 0 l 1,105,-1
 200 0 l 1,106,-1
 200 -100 l 1,107,-1
 100 -100 l 1,104,-1
100 500 m 1,108,-1
 100 600 l 1,109,-1
 200 600 l 1,110,-1
 200 500 l 1,111,-1
 100 500 l 1,108,-1
100 800 m 1,112,-1
 100 900 l 1,113,-1
 200 900 l 1,114,-1
 200 800 l 1,115,-1
 100 800 l 1,112,-1
400 200 m 1,116,-1
 400 300 l 1,117,-1
 500 300 l 1,118,-1
 500 200 l 1,119,-1
 400 200 l 1,116,-1
400 -100 m 1,120,-1
 400 0 l 1,121,-1
 500 0 l 1,122,-1
 500 -100 l 1,123,-1
 400 -100 l 1,120,-1
400 500 m 1,124,-1
 400 600 l 1,125,-1
 500 600 l 1,126,-1
 500 500 l 1,127,-1
 400 500 l 1,124,-1
400 800 m 1,128,-1
 400 900 l 1,129,-1
 500 900 l 1,130,-1
 500 800 l 1,131,-1
 400 800 l 1,128,-1
EndSplineSet
Validated: 5
EndChar

StartChar: uni0007
Encoding: 7 7 5
Width: 700
VWidth: 1400
Flags: W
LayerCount: 2
Fore
SplineSet
0 500 m 1,0,-1
 0 700 l 1,1,-1
 100 700 l 1,2,-1
 100 800 l 1,3,-1
 400 800 l 1,4,-1
 400 700 l 1,5,-1
 500 700 l 1,6,-1
 500 500 l 1,7,-1
 400 500 l 1,8,-1
 400 400 l 1,9,-1
 100 400 l 1,10,-1
 100 500 l 1,11,-1
 0 500 l 1,0,-1
200 500 m 1,12,-1
 300 500 l 1,13,-1
 300 700 l 1,14,-1
 200 700 l 1,15,-1
 200 500 l 1,12,-1
EndSplineSet
Validated: 1
EndChar

StartChar: uni000B
Encoding: 11 11 6
Width: 700
VWidth: 1400
Flags: W
LayerCount: 2
Fore
SplineSet
0 300 m 1,0,-1
 0 400 l 1,1,-1
 200 400 l 1,2,-1
 200 1100 l 1,3,-1
 400 1100 l 1,4,-1
 400 300 l 1,5,-1
 0 300 l 1,0,-1
EndSplineSet
Validated: 1
EndChar

StartChar: uni000C
Encoding: 12 12 7
Width: 700
VWidth: 1400
Flags: W
LayerCount: 2
Fore
SplineSet
0 300 m 1,0,-1
 0 400 l 1,1,-1
 400 400 l 1,2,-1
 400 -300 l 1,3,-1
 200 -300 l 1,4,-1
 200 300 l 1,5,-1
 0 300 l 1,0,-1
EndSplineSet
Validated: 1
EndChar

StartChar: uni000E
Encoding: 14 14 8
Width: 700
VWidth: 1400
Flags: W
LayerCount: 2
Fore
SplineSet
400 400 m 1,0,-1
 700 400 l 1,1,-1
 700 300 l 1,2,-1
 200 300 l 1,3,-1
 200 1100 l 1,4,-1
 400 1100 l 1,5,-1
 400 400 l 1,0,-1
EndSplineSet
Validated: 1
EndChar

StartChar: uni000F
Encoding: 15 15 9
Width: 700
VWidth: 1400
Flags: W
LayerCount: 2
Fore
SplineSet
0 300 m 1,0,-1
 0 400 l 1,1,-1
 200 400 l 1,2,-1
 200 1100 l 1,3,-1
 400 1100 l 1,4,-1
 400 400 l 1,5,-1
 700 400 l 1,6,-1
 700 300 l 1,7,-1
 400 300 l 1,8,-1
 400 -300 l 1,9,-1
 200 -300 l 1,10,-1
 200 300 l 1,11,-1
 0 300 l 1,0,-1
EndSplineSet
Validated: 1
EndChar

StartChar: uni0012
Encoding: 18 18 10
Width: 700
VWidth: 1400
Flags: W
LayerCount: 2
Fore
SplineSet
0 300 m 1,0,-1
 0 400 l 1,1,-1
 700 400 l 1,2,-1
 700 300 l 1,3,-1
 0 300 l 1,0,-1
EndSplineSet
Validated: 1
EndChar

StartChar: uni0015
Encoding: 21 21 11
Width: 700
VWidth: 1400
Flags: W
LayerCount: 2
Fore
SplineSet
400 400 m 1,0,-1
 700 400 l 1,1,-1
 700 300 l 1,2,-1
 400 300 l 1,3,-1
 400 -300 l 1,4,-1
 200 -300 l 1,5,-1
 200 1100 l 1,6,-1
 400 1100 l 1,7,-1
 400 400 l 1,0,-1
EndSplineSet
Validated: 1
EndChar

StartChar: uni0016
Encoding: 22 22 12
Width: 700
VWidth: 1400
Flags: W
LayerCount: 2
Fore
SplineSet
0 300 m 1,0,-1
 0 400 l 1,1,-1
 200 400 l 1,2,-1
 200 1100 l 1,3,-1
 400 1100 l 1,4,-1
 400 -300 l 1,5,-1
 200 -300 l 1,6,-1
 200 300 l 1,7,-1
 0 300 l 1,0,-1
EndSplineSet
Validated: 1
EndChar

StartChar: uni0017
Encoding: 23 23 13
Width: 700
VWidth: 1400
Flags: W
LayerCount: 2
Fore
SplineSet
0 300 m 1,0,-1
 0 400 l 1,1,-1
 200 400 l 1,2,-1
 200 1100 l 1,3,-1
 400 1100 l 1,4,-1
 400 400 l 1,5,-1
 700 400 l 1,6,-1
 700 300 l 1,7,-1
 0 300 l 1,0,-1
EndSplineSet
Validated: 1
EndChar

StartChar: uni0018
Encoding: 24 24 14
Width: 700
VWidth: 1400
Flags: W
LayerCount: 2
Fore
SplineSet
0 300 m 1,0,-1
 0 400 l 1,1,-1
 700 400 l 1,2,-1
 700 300 l 1,3,-1
 400 300 l 1,4,-1
 400 -300 l 1,5,-1
 200 -300 l 1,6,-1
 200 300 l 1,7,-1
 0 300 l 1,0,-1
EndSplineSet
Validated: 1
EndChar

StartChar: uni0019
Encoding: 25 25 15
Width: 700
VWidth: 1400
Flags: W
LayerCount: 2
Fore
SplineSet
400 -300 m 1,0,-1
 200 -300 l 1,1,-1
 200 1100 l 1,2,-1
 400 1100 l 1,3,-1
 400 -300 l 1,0,-1
EndSplineSet
Validated: 1
EndChar

StartChar: uni001E
Encoding: 30 30 16
Width: 700
VWidth: 1400
Flags: W
LayerCount: 2
Fore
SplineSet
0 0 m 1,0,-1
 0 100 l 1,1,-1
 100 100 l 1,2,-1
 100 300 l 1,3,-1
 0 300 l 1,4,-1
 0 400 l 1,5,-1
 100 400 l 1,6,-1
 100 700 l 1,7,-1
 200 700 l 1,8,-1
 200 800 l 1,9,-1
 500 800 l 1,10,-1
 500 700 l 1,11,-1
 600 700 l 1,12,-1
 600 600 l 1,13,-1
 400 600 l 1,14,-1
 400 700 l 1,15,-1
 300 700 l 1,16,-1
 300 400 l 1,17,-1
 500 400 l 1,18,-1
 500 300 l 1,19,-1
 300 300 l 1,20,-1
 300 100 l 1,21,-1
 600 100 l 1,22,-1
 600 0 l 1,23,-1
 0 0 l 1,0,-1
EndSplineSet
Validated: 1
EndChar

StartChar: exclam
Encoding: 33 33 17
Width: 700
VWidth: 1400
Flags: W
LayerCount: 2
Fore
SplineSet
100 600 m 1,0,-1
 100 800 l 1,1,-1
 200 800 l 1,2,-1
 200 900 l 1,3,-1
 400 900 l 1,4,-1
 400 800 l 1,5,-1
 500 800 l 1,6,-1
 500 600 l 1,7,-1
 400 600 l 1,8,-1
 400 400 l 1,9,-1
 200 400 l 1,10,-1
 200 600 l 1,11,-1
 100 600 l 1,0,-1
200 200 m 1,12,-1
 400 200 l 1,13,-1
 400 0 l 1,14,-1
 200 0 l 1,15,-1
 200 200 l 1,12,-1
EndSplineSet
Validated: 1
EndChar

StartChar: quotedbl
Encoding: 34 34 18
Width: 700
VWidth: 1400
Flags: W
LayerCount: 2
Fore
SplineSet
0 500 m 1,0,-1
 0 900 l 1,1,-1
 200 900 l 1,2,-1
 200 500 l 1,3,-1
 0 500 l 1,0,-1
500 500 m 1,4,-1
 300 500 l 1,5,-1
 300 900 l 1,6,-1
 500 900 l 1,7,-1
 500 500 l 1,4,-1
EndSplineSet
Validated: 1
EndChar

StartChar: numbersign
Encoding: 35 35 19
Width: 700
VWidth: 1400
Flags: W
LayerCount: 2
Fore
SplineSet
0 100 m 1,0,-1
 0 300 l 1,1,-1
 100 300 l 1,2,-1
 100 500 l 1,3,-1
 0 500 l 1,4,-1
 0 700 l 1,5,-1
 100 700 l 1,6,-1
 100 900 l 1,7,-1
 200 900 l 1,8,-1
 200 700 l 1,9,-1
 400 700 l 1,10,-1
 400 900 l 1,11,-1
 500 900 l 1,12,-1
 500 700 l 1,13,-1
 600 700 l 1,14,-1
 600 500 l 1,15,-1
 500 500 l 1,16,-1
 500 300 l 1,17,-1
 600 300 l 1,18,-1
 600 100 l 1,19,-1
 500 100 l 1,20,-1
 500 -100 l 1,21,-1
 400 -100 l 1,22,-1
 400 100 l 1,23,-1
 200 100 l 1,24,-1
 200 -100 l 1,25,-1
 100 -100 l 1,26,-1
 100 100 l 1,27,-1
 0 100 l 1,0,-1
200 500 m 1,28,-1
 200 300 l 1,29,-1
 400 300 l 1,30,-1
 400 500 l 1,31,-1
 200 500 l 1,28,-1
EndSplineSet
Validated: 1
EndChar

StartChar: dollar
Encoding: 36 36 20
Width: 700
VWidth: 1400
Flags: W
LayerCount: 2
Fore
SplineSet
0 100 m 1,0,-1
 0 200 l 1,1,-1
 400 200 l 1,2,-1
 400 300 l 1,3,-1
 300 300 l 1,4,-1
 300 400 l 1,5,-1
 500 400 l 1,6,-1
 500 300 l 1,7,-1
 600 300 l 1,8,-1
 600 200 l 1,9,-1
 500 200 l 1,10,-1
 500 100 l 1,11,-1
 400 100 l 1,12,-1
 400 -100 l 1,13,-1
 200 -100 l 1,14,-1
 200 100 l 1,15,-1
 0 100 l 1,0,-1
0 500 m 1,16,-1
 0 600 l 1,17,-1
 100 600 l 1,18,-1
 100 700 l 1,19,-1
 200 700 l 1,20,-1
 200 900 l 1,21,-1
 400 900 l 1,22,-1
 400 700 l 1,23,-1
 600 700 l 1,24,-1
 600 600 l 1,25,-1
 200 600 l 1,26,-1
 200 500 l 1,27,-1
 300 500 l 1,28,-1
 300 400 l 1,29,-1
 100 400 l 1,30,-1
 100 500 l 1,31,-1
 0 500 l 1,16,-1
EndSplineSet
Validated: 5
EndChar

StartChar: percent
Encoding: 37 37 21
Width: 700
VWidth: 1400
Flags: W
LayerCount: 2
Fore
SplineSet
0 100 m 1,0,-1
 0 200 l 1,1,-1
 100 200 l 1,2,-1
 100 100 l 1,3,-1
 0 100 l 1,0,-1
0 500 m 1,4,-1
 0 700 l 1,5,-1
 100 700 l 1,6,-1
 100 800 l 1,7,-1
 300 800 l 1,8,-1
 300 700 l 1,9,-1
 200 700 l 1,10,-1
 200 500 l 1,11,-1
 300 500 l 1,12,-1
 300 700 l 1,13,-1
 400 700 l 1,14,-1
 400 600 l 1,15,-1
 500 600 l 1,16,-1
 500 500 l 1,17,-1
 400 500 l 1,18,-1
 400 400 l 1,19,-1
 500 400 l 1,20,-1
 500 300 l 1,21,-1
 400 300 l 1,22,-1
 400 100 l 1,23,-1
 500 100 l 1,24,-1
 500 0 l 1,25,-1
 300 0 l 1,26,-1
 300 100 l 1,27,-1
 200 100 l 1,28,-1
 200 200 l 1,29,-1
 100 200 l 1,30,-1
 100 300 l 1,31,-1
 200 300 l 1,32,-1
 200 400 l 1,33,-1
 100 400 l 1,34,-1
 100 500 l 1,35,-1
 0 500 l 1,4,-1
600 100 m 1,36,-1
 500 100 l 1,37,-1
 500 300 l 1,38,-1
 600 300 l 1,39,-1
 600 100 l 1,36,-1
600 700 m 1,40,-1
 600 600 l 1,41,-1
 500 600 l 1,42,-1
 500 700 l 1,43,-1
 600 700 l 1,40,-1
EndSplineSet
Validated: 5
EndChar

StartChar: ampersand
Encoding: 38 38 22
Width: 700
VWidth: 1400
Flags: W
LayerCount: 2
Fore
SplineSet
0 100 m 1,0,-1
 0 400 l 1,1,-1
 100 400 l 1,2,-1
 100 500 l 1,3,-1
 0 500 l 1,4,-1
 0 700 l 1,5,-1
 100 700 l 1,6,-1
 100 800 l 1,7,-1
 400 800 l 1,8,-1
 400 700 l 1,9,-1
 500 700 l 1,10,-1
 500 500 l 1,11,-1
 400 500 l 1,12,-1
 400 400 l 1,13,-1
 700 400 l 1,14,-1
 700 300 l 1,15,-1
 600 300 l 1,16,-1
 600 100 l 1,17,-1
 700 100 l 1,18,-1
 700 0 l 1,19,-1
 100 0 l 1,20,-1
 100 100 l 1,21,-1
 0 100 l 1,0,-1
200 100 m 1,22,-1
 400 100 l 1,23,-1
 400 300 l 1,24,-1
 300 300 l 1,25,-1
 300 400 l 1,26,-1
 200 400 l 1,27,-1
 200 100 l 1,22,-1
200 500 m 1,28,-1
 300 500 l 1,29,-1
 300 700 l 1,30,-1
 200 700 l 1,31,-1
 200 500 l 1,28,-1
EndSplineSet
Validated: 1
EndChar

StartChar: quotesingle
Encoding: 39 39 23
Width: 700
VWidth: 1400
Flags: W
LayerCount: 2
Fore
SplineSet
400 500 m 1,0,-1
 200 500 l 1,1,-1
 200 900 l 1,2,-1
 400 900 l 1,3,-1
 400 500 l 1,0,-1
EndSplineSet
Validated: 1
EndChar

StartChar: parenleft
Encoding: 40 40 24
Width: 700
VWidth: 1400
Flags: W
LayerCount: 2
Fore
SplineSet
100 100 m 1,0,-1
 100 600 l 1,1,-1
 200 600 l 1,2,-1
 200 800 l 1,3,-1
 300 800 l 1,4,-1
 300 900 l 1,5,-1
 500 900 l 1,6,-1
 500 800 l 1,7,-1
 400 800 l 1,8,-1
 400 600 l 1,9,-1
 300 600 l 1,10,-1
 300 100 l 1,11,-1
 400 100 l 1,12,-1
 400 -100 l 1,13,-1
 500 -100 l 1,14,-1
 500 -200 l 1,15,-1
 300 -200 l 1,16,-1
 300 -100 l 1,17,-1
 200 -100 l 1,18,-1
 200 100 l 1,19,-1
 100 100 l 1,0,-1
EndSplineSet
Validated: 1
EndChar

StartChar: parenright
Encoding: 41 41 25
Width: 700
VWidth: 1400
Flags: W
LayerCount: 2
Fore
SplineSet
100 -200 m 1,0,-1
 100 -100 l 1,1,-1
 200 -100 l 1,2,-1
 200 100 l 1,3,-1
 300 100 l 1,4,-1
 300 600 l 1,5,-1
 200 600 l 1,6,-1
 200 800 l 1,7,-1
 100 800 l 1,8,-1
 100 900 l 1,9,-1
 300 900 l 1,10,-1
 300 800 l 1,11,-1
 400 800 l 1,12,-1
 400 600 l 1,13,-1
 500 600 l 1,14,-1
 500 100 l 1,15,-1
 400 100 l 1,16,-1
 400 -100 l 1,17,-1
 300 -100 l 1,18,-1
 300 -200 l 1,19,-1
 100 -200 l 1,0,-1
EndSplineSet
Validated: 1
EndChar

StartChar: asterisk
Encoding: 42 42 26
Width: 700
VWidth: 1400
Flags: W
LayerCount: 2
Fore
SplineSet
0 300 m 1,0,-1
 0 400 l 1,1,-1
 200 400 l 1,2,-1
 200 500 l 1,3,-1
 100 500 l 1,4,-1
 100 600 l 1,5,-1
 300 600 l 1,6,-1
 300 500 l 1,7,-1
 400 500 l 1,8,-1
 400 600 l 1,9,-1
 600 600 l 1,10,-1
 600 500 l 1,11,-1
 500 500 l 1,12,-1
 500 400 l 1,13,-1
 700 400 l 1,14,-1
 700 300 l 1,15,-1
 500 300 l 1,16,-1
 500 200 l 1,17,-1
 600 200 l 1,18,-1
 600 100 l 1,19,-1
 400 100 l 1,20,-1
 400 200 l 1,21,-1
 300 200 l 1,22,-1
 300 100 l 1,23,-1
 100 100 l 1,24,-1
 100 200 l 1,25,-1
 200 200 l 1,26,-1
 200 300 l 1,27,-1
 0 300 l 1,0,-1
EndSplineSet
Validated: 1
EndChar

StartChar: plus
Encoding: 43 43 27
Width: 700
VWidth: 1400
Flags: W
LayerCount: 2
Fore
SplineSet
400 100 m 1,0,-1
 200 100 l 1,1,-1
 200 300 l 1,2,-1
 0 300 l 1,3,-1
 0 400 l 1,4,-1
 200 400 l 1,5,-1
 200 600 l 1,6,-1
 400 600 l 1,7,-1
 400 400 l 1,8,-1
 600 400 l 1,9,-1
 600 300 l 1,10,-1
 400 300 l 1,11,-1
 400 100 l 1,0,-1
EndSplineSet
Validated: 1
EndChar

StartChar: comma
Encoding: 44 44 28
Width: 700
VWidth: 1400
Flags: W
LayerCount: 2
Fore
SplineSet
400 -200 m 1,0,-1
 300 -200 l 1,1,-1
 300 -300 l 1,2,-1
 100 -300 l 1,3,-1
 100 -200 l 1,4,-1
 200 -200 l 1,5,-1
 200 0 l 1,6,-1
 100 0 l 1,7,-1
 100 200 l 1,8,-1
 400 200 l 1,9,-1
 400 -200 l 1,0,-1
EndSplineSet
Validated: 1
EndChar

StartChar: hyphen
Encoding: 45 45 29
Width: 700
VWidth: 1400
Flags: W
LayerCount: 2
Fore
SplineSet
0 300 m 1,0,-1
 0 400 l 1,1,-1
 600 400 l 1,2,-1
 600 300 l 1,3,-1
 0 300 l 1,0,-1
EndSplineSet
Validated: 2097153
EndChar

StartChar: period
Encoding: 46 46 30
Width: 700
VWidth: 1400
Flags: W
LayerCount: 2
Fore
SplineSet
400 200 m 1,0,-1
 400 0 l 1,1,-1
 100 0 l 1,2,-1
 100 200 l 1,3,-1
 400 200 l 1,0,-1
EndSplineSet
Validated: 1
EndChar

StartChar: slash
Encoding: 47 47 31
Width: 700
VWidth: 1400
Flags: W
LayerCount: 2
Fore
SplineSet
0 100 m 1,0,-1
 100 100 l 1,1,-1
 100 300 l 1,2,-1
 200 300 l 1,3,-1
 200 500 l 1,4,-1
 300 500 l 1,5,-1
 300 700 l 1,6,-1
 400 700 l 1,7,-1
 400 900 l 1,8,-1
 600 900 l 1,9,-1
 600 700 l 1,10,-1
 500 700 l 1,11,-1
 500 500 l 1,12,-1
 400 500 l 1,13,-1
 400 300 l 1,14,-1
 300 300 l 1,15,-1
 300 100 l 1,16,-1
 200 100 l 1,17,-1
 200 -100 l 1,18,-1
 0 -100 l 1,19,-1
 0 100 l 1,0,-1
EndSplineSet
Validated: 1
EndChar

StartChar: zero
Encoding: 48 48 32
Width: 700
VWidth: 1400
Flags: W
LayerCount: 2
Fore
SplineSet
0 100 m 1,0,-1
 0 700 l 1,1,-1
 100 700 l 1,2,-1
 100 800 l 1,3,-1
 500 800 l 1,4,-1
 500 700 l 1,5,-1
 600 700 l 1,6,-1
 600 100 l 1,7,-1
 500 100 l 1,8,-1
 500 0 l 1,9,-1
 100 0 l 1,10,-1
 100 100 l 1,11,-1
 0 100 l 1,0,-1
200 200 m 1,12,-1
 200 100 l 1,13,-1
 400 100 l 1,14,-1
 400 400 l 1,15,-1
 300 400 l 1,16,-1
 300 600 l 1,17,-1
 400 600 l 1,18,-1
 400 700 l 1,19,-1
 200 700 l 1,20,-1
 200 400 l 1,21,-1
 300 400 l 1,22,-1
 300 200 l 1,23,-1
 200 200 l 1,12,-1
EndSplineSet
Validated: 5
EndChar

StartChar: one
Encoding: 49 49 33
Width: 700
VWidth: 1400
Flags: W
LayerCount: 2
Fore
SplineSet
0 0 m 1,0,-1
 0 100 l 1,1,-1
 200 100 l 1,2,-1
 200 500 l 1,3,-1
 0 500 l 1,4,-1
 0 600 l 1,5,-1
 100 600 l 1,6,-1
 100 700 l 1,7,-1
 200 700 l 1,8,-1
 200 800 l 1,9,-1
 400 800 l 1,10,-1
 400 100 l 1,11,-1
 600 100 l 1,12,-1
 600 0 l 1,13,-1
 0 0 l 1,0,-1
EndSplineSet
Validated: 1
EndChar

StartChar: two
Encoding: 50 50 34
Width: 700
VWidth: 1400
Flags: W
LayerCount: 2
Fore
SplineSet
0 200 m 1,0,-1
 100 200 l 1,1,-1
 100 300 l 1,2,-1
 200 300 l 1,3,-1
 200 400 l 1,4,-1
 300 400 l 1,5,-1
 300 500 l 1,6,-1
 400 500 l 1,7,-1
 400 700 l 1,8,-1
 200 700 l 1,9,-1
 200 600 l 1,10,-1
 0 600 l 1,11,-1
 0 700 l 1,12,-1
 100 700 l 1,13,-1
 100 800 l 1,14,-1
 500 800 l 1,15,-1
 500 700 l 1,16,-1
 600 700 l 1,17,-1
 600 500 l 1,18,-1
 500 500 l 1,19,-1
 500 400 l 1,20,-1
 400 400 l 1,21,-1
 400 300 l 1,22,-1
 300 300 l 1,23,-1
 300 200 l 1,24,-1
 200 200 l 1,25,-1
 200 100 l 1,26,-1
 600 100 l 1,27,-1
 600 0 l 1,28,-1
 0 0 l 1,29,-1
 0 200 l 1,0,-1
EndSplineSet
Validated: 1
EndChar

StartChar: three
Encoding: 51 51 35
Width: 700
VWidth: 1400
Flags: W
LayerCount: 2
Fore
SplineSet
0 100 m 1,0,-1
 0 200 l 1,1,-1
 200 200 l 1,2,-1
 200 100 l 1,3,-1
 400 100 l 1,4,-1
 400 400 l 1,5,-1
 200 400 l 1,6,-1
 200 500 l 1,7,-1
 300 500 l 1,8,-1
 300 600 l 1,9,-1
 400 600 l 1,10,-1
 400 700 l 1,11,-1
 0 700 l 1,12,-1
 0 800 l 1,13,-1
 600 800 l 1,14,-1
 600 600 l 1,15,-1
 500 600 l 1,16,-1
 500 400 l 1,17,-1
 600 400 l 1,18,-1
 600 100 l 1,19,-1
 500 100 l 1,20,-1
 500 0 l 1,21,-1
 100 0 l 1,22,-1
 100 100 l 1,23,-1
 0 100 l 1,0,-1
EndSplineSet
Validated: 1
EndChar

StartChar: four
Encoding: 52 52 36
Width: 700
VWidth: 1400
Flags: W
LayerCount: 2
Fore
SplineSet
0 500 m 1,0,-1
 100 500 l 1,1,-1
 100 400 l 1,2,-1
 300 400 l 1,3,-1
 300 600 l 1,4,-1
 200 600 l 1,5,-1
 200 700 l 1,6,-1
 300 700 l 1,7,-1
 300 800 l 1,8,-1
 500 800 l 1,9,-1
 500 400 l 1,10,-1
 600 400 l 1,11,-1
 600 300 l 1,12,-1
 500 300 l 1,13,-1
 500 0 l 1,14,-1
 300 0 l 1,15,-1
 300 300 l 1,16,-1
 0 300 l 1,17,-1
 0 500 l 1,0,-1
100 500 m 1,18,-1
 100 600 l 1,19,-1
 200 600 l 1,20,-1
 200 500 l 1,21,-1
 100 500 l 1,18,-1
EndSplineSet
Validated: 5
EndChar

StartChar: five
Encoding: 53 53 37
Width: 700
VWidth: 1400
Flags: W
LayerCount: 2
Fore
SplineSet
0 100 m 1,0,-1
 0 200 l 1,1,-1
 200 200 l 1,2,-1
 200 100 l 1,3,-1
 400 100 l 1,4,-1
 400 400 l 1,5,-1
 0 400 l 1,6,-1
 0 800 l 1,7,-1
 600 800 l 1,8,-1
 600 700 l 1,9,-1
 200 700 l 1,10,-1
 200 500 l 1,11,-1
 500 500 l 1,12,-1
 500 400 l 1,13,-1
 600 400 l 1,14,-1
 600 100 l 1,15,-1
 500 100 l 1,16,-1
 500 0 l 1,17,-1
 100 0 l 1,18,-1
 100 100 l 1,19,-1
 0 100 l 1,0,-1
EndSplineSet
Validated: 1
EndChar

StartChar: six
Encoding: 54 54 38
Width: 700
VWidth: 1400
Flags: W
LayerCount: 2
Fore
SplineSet
0 100 m 1,0,-1
 0 600 l 1,1,-1
 100 600 l 1,2,-1
 100 700 l 1,3,-1
 200 700 l 1,4,-1
 200 800 l 1,5,-1
 500 800 l 1,6,-1
 500 700 l 1,7,-1
 300 700 l 1,8,-1
 300 600 l 1,9,-1
 200 600 l 1,10,-1
 200 500 l 1,11,-1
 500 500 l 1,12,-1
 500 400 l 1,13,-1
 600 400 l 1,14,-1
 600 100 l 1,15,-1
 500 100 l 1,16,-1
 500 0 l 1,17,-1
 100 0 l 1,18,-1
 100 100 l 1,19,-1
 0 100 l 1,0,-1
200 100 m 1,20,-1
 400 100 l 1,21,-1
 400 400 l 1,22,-1
 200 400 l 1,23,-1
 200 100 l 1,20,-1
EndSplineSet
Validated: 1
EndChar

StartChar: seven
Encoding: 55 55 39
Width: 700
VWidth: 1400
Flags: W
LayerCount: 2
Fore
SplineSet
0 700 m 1,0,-1
 0 800 l 1,1,-1
 600 800 l 1,2,-1
 600 600 l 1,3,-1
 500 600 l 1,4,-1
 500 400 l 1,5,-1
 400 400 l 1,6,-1
 400 200 l 1,7,-1
 300 200 l 1,8,-1
 300 0 l 1,9,-1
 100 0 l 1,10,-1
 100 200 l 1,11,-1
 200 200 l 1,12,-1
 200 400 l 1,13,-1
 300 400 l 1,14,-1
 300 600 l 1,15,-1
 400 600 l 1,16,-1
 400 700 l 1,17,-1
 0 700 l 1,0,-1
EndSplineSet
Validated: 1
EndChar

StartChar: eight
Encoding: 56 56 40
Width: 700
VWidth: 1400
Flags: W
LayerCount: 2
Fore
SplineSet
0 100 m 1,0,-1
 0 400 l 1,1,-1
 100 400 l 1,2,-1
 100 500 l 1,3,-1
 0 500 l 1,4,-1
 0 700 l 1,5,-1
 100 700 l 1,6,-1
 100 800 l 1,7,-1
 500 800 l 1,8,-1
 500 700 l 1,9,-1
 600 700 l 1,10,-1
 600 500 l 1,11,-1
 500 500 l 1,12,-1
 500 400 l 1,13,-1
 600 400 l 1,14,-1
 600 100 l 1,15,-1
 500 100 l 1,16,-1
 500 0 l 1,17,-1
 100 0 l 1,18,-1
 100 100 l 1,19,-1
 0 100 l 1,0,-1
200 100 m 1,20,-1
 400 100 l 1,21,-1
 400 400 l 1,22,-1
 200 400 l 1,23,-1
 200 100 l 1,20,-1
200 500 m 1,24,-1
 400 500 l 1,25,-1
 400 700 l 1,26,-1
 200 700 l 1,27,-1
 200 500 l 1,24,-1
EndSplineSet
Validated: 1
EndChar

StartChar: nine
Encoding: 57 57 41
Width: 700
VWidth: 1400
Flags: W
LayerCount: 2
Fore
SplineSet
0 400 m 1,0,-1
 0 700 l 1,1,-1
 100 700 l 1,2,-1
 100 800 l 1,3,-1
 500 800 l 1,4,-1
 500 700 l 1,5,-1
 600 700 l 1,6,-1
 600 200 l 1,7,-1
 500 200 l 1,8,-1
 500 100 l 1,9,-1
 400 100 l 1,10,-1
 400 0 l 1,11,-1
 100 0 l 1,12,-1
 100 100 l 1,13,-1
 300 100 l 1,14,-1
 300 200 l 1,15,-1
 400 200 l 1,16,-1
 400 300 l 1,17,-1
 100 300 l 1,18,-1
 100 400 l 1,19,-1
 0 400 l 1,0,-1
200 400 m 1,20,-1
 400 400 l 1,21,-1
 400 700 l 1,22,-1
 200 700 l 1,23,-1
 200 400 l 1,20,-1
EndSplineSet
Validated: 1
EndChar

StartChar: colon
Encoding: 58 58 42
Width: 700
VWidth: 1400
Flags: W
LayerCount: 2
Fore
SplineSet
400 200 m 1,0,-1
 400 0 l 1,1,-1
 100 0 l 1,2,-1
 100 200 l 1,3,-1
 400 200 l 1,0,-1
400 500 m 1,4,-1
 100 500 l 1,5,-1
 100 700 l 1,6,-1
 400 700 l 1,7,-1
 400 500 l 1,4,-1
EndSplineSet
Validated: 1
EndChar

StartChar: semicolon
Encoding: 59 59 43
Width: 700
VWidth: 1400
Flags: W
LayerCount: 2
Fore
SplineSet
100 -200 m 1,0,-1
 200 -200 l 1,1,-1
 200 0 l 1,2,-1
 100 0 l 1,3,-1
 100 200 l 1,4,-1
 400 200 l 1,5,-1
 400 -200 l 1,6,-1
 300 -200 l 1,7,-1
 300 -300 l 1,8,-1
 100 -300 l 1,9,-1
 100 -200 l 1,0,-1
100 500 m 1,10,-1
 100 700 l 1,11,-1
 400 700 l 1,12,-1
 400 500 l 1,13,-1
 100 500 l 1,10,-1
EndSplineSet
Validated: 1
EndChar

StartChar: less
Encoding: 60 60 44
Width: 700
VWidth: 1400
Flags: W
LayerCount: 2
Fore
SplineSet
200 200 m 1,0,-1
 200 300 l 1,1,-1
 100 300 l 1,2,-1
 100 400 l 1,3,-1
 200 400 l 1,4,-1
 200 500 l 1,5,-1
 300 500 l 1,6,-1
 300 600 l 1,7,-1
 400 600 l 1,8,-1
 400 700 l 1,9,-1
 600 700 l 1,10,-1
 600 600 l 1,11,-1
 500 600 l 1,12,-1
 500 500 l 1,13,-1
 400 500 l 1,14,-1
 400 400 l 1,15,-1
 300 400 l 1,16,-1
 300 300 l 1,17,-1
 400 300 l 1,18,-1
 400 200 l 1,19,-1
 500 200 l 1,20,-1
 500 100 l 1,21,-1
 600 100 l 1,22,-1
 600 0 l 1,23,-1
 400 0 l 1,24,-1
 400 100 l 1,25,-1
 300 100 l 1,26,-1
 300 200 l 1,27,-1
 200 200 l 1,0,-1
EndSplineSet
Validated: 1
EndChar

StartChar: equal
Encoding: 61 61 45
Width: 700
VWidth: 1400
Flags: W
LayerCount: 2
Fore
SplineSet
0 200 m 1,0,-1
 0 300 l 1,1,-1
 600 300 l 1,2,-1
 600 200 l 1,3,-1
 0 200 l 1,0,-1
0 500 m 1,4,-1
 0 600 l 1,5,-1
 600 600 l 1,6,-1
 600 500 l 1,7,-1
 0 500 l 1,4,-1
EndSplineSet
Validated: 1
EndChar

StartChar: greater
Encoding: 62 62 46
Width: 700
VWidth: 1400
Flags: W
LayerCount: 2
Fore
SplineSet
0 0 m 1,0,-1
 0 100 l 1,1,-1
 100 100 l 1,2,-1
 100 200 l 1,3,-1
 200 200 l 1,4,-1
 200 300 l 1,5,-1
 300 300 l 1,6,-1
 300 400 l 1,7,-1
 200 400 l 1,8,-1
 200 500 l 1,9,-1
 100 500 l 1,10,-1
 100 600 l 1,11,-1
 0 600 l 1,12,-1
 0 700 l 1,13,-1
 200 700 l 1,14,-1
 200 600 l 1,15,-1
 300 600 l 1,16,-1
 300 500 l 1,17,-1
 400 500 l 1,18,-1
 400 400 l 1,19,-1
 500 400 l 1,20,-1
 500 300 l 1,21,-1
 400 300 l 1,22,-1
 400 200 l 1,23,-1
 300 200 l 1,24,-1
 300 100 l 1,25,-1
 200 100 l 1,26,-1
 200 0 l 1,27,-1
 0 0 l 1,0,-1
EndSplineSet
Validated: 1
EndChar

StartChar: question
Encoding: 63 63 47
Width: 700
VWidth: 1400
Flags: W
LayerCount: 2
Fore
SplineSet
0 700 m 1,0,-1
 0 800 l 1,1,-1
 100 800 l 1,2,-1
 100 700 l 1,3,-1
 0 700 l 1,0,-1
100 800 m 1,4,-1
 100 900 l 1,5,-1
 500 900 l 1,6,-1
 500 800 l 1,7,-1
 600 800 l 1,8,-1
 600 600 l 1,9,-1
 500 600 l 1,10,-1
 500 500 l 1,11,-1
 400 500 l 1,12,-1
 400 400 l 1,13,-1
 200 400 l 1,14,-1
 200 500 l 1,15,-1
 300 500 l 1,16,-1
 300 600 l 1,17,-1
 400 600 l 1,18,-1
 400 800 l 1,19,-1
 100 800 l 1,4,-1
200 200 m 1,20,-1
 400 200 l 1,21,-1
 400 0 l 1,22,-1
 200 0 l 1,23,-1
 200 200 l 1,20,-1
EndSplineSet
Validated: 5
EndChar

StartChar: at
Encoding: 64 64 48
Width: 700
VWidth: 1400
Flags: W
LayerCount: 2
Fore
SplineSet
0 0 m 1,0,-1
 0 700 l 1,1,-1
 100 700 l 1,2,-1
 100 800 l 1,3,-1
 500 800 l 1,4,-1
 500 700 l 1,5,-1
 600 700 l 1,6,-1
 600 200 l 1,7,-1
 300 200 l 1,8,-1
 300 500 l 1,9,-1
 400 500 l 1,10,-1
 400 700 l 1,11,-1
 200 700 l 1,12,-1
 200 0 l 1,13,-1
 600 0 l 1,14,-1
 600 -100 l 1,15,-1
 100 -100 l 1,16,-1
 100 0 l 1,17,-1
 0 0 l 1,0,-1
EndSplineSet
Validated: 1
EndChar

StartChar: A
Encoding: 65 65 49
Width: 700
VWidth: 1400
Flags: W
LayerCount: 2
Fore
SplineSet
0 0 m 1,0,-1
 0 600 l 1,1,-1
 100 600 l 1,2,-1
 100 700 l 1,3,-1
 200 700 l 1,4,-1
 200 800 l 1,5,-1
 400 800 l 1,6,-1
 400 700 l 1,7,-1
 500 700 l 1,8,-1
 500 600 l 1,9,-1
 600 600 l 1,10,-1
 600 0 l 1,11,-1
 400 0 l 1,12,-1
 400 300 l 1,13,-1
 200 300 l 1,14,-1
 200 0 l 1,15,-1
 0 0 l 1,0,-1
200 400 m 1,16,-1
 400 400 l 1,17,-1
 400 600 l 1,18,-1
 200 600 l 1,19,-1
 200 400 l 1,16,-1
EndSplineSet
Validated: 1
EndChar

StartChar: B
Encoding: 66 66 50
Width: 700
VWidth: 1400
Flags: W
LayerCount: 2
Fore
SplineSet
0 0 m 1,0,-1
 0 800 l 1,1,-1
 500 800 l 1,2,-1
 500 700 l 1,3,-1
 600 700 l 1,4,-1
 600 500 l 1,5,-1
 500 500 l 1,6,-1
 500 400 l 1,7,-1
 600 400 l 1,8,-1
 600 100 l 1,9,-1
 500 100 l 1,10,-1
 500 0 l 1,11,-1
 0 0 l 1,0,-1
200 100 m 1,12,-1
 400 100 l 1,13,-1
 400 400 l 1,14,-1
 200 400 l 1,15,-1
 200 100 l 1,12,-1
200 500 m 1,16,-1
 400 500 l 1,17,-1
 400 700 l 1,18,-1
 200 700 l 1,19,-1
 200 500 l 1,16,-1
EndSplineSet
Validated: 1
EndChar

StartChar: C
Encoding: 67 67 51
Width: 700
VWidth: 1400
Flags: W
LayerCount: 2
Fore
SplineSet
0 200 m 1,0,-1
 0 600 l 1,1,-1
 100 600 l 1,2,-1
 100 700 l 1,3,-1
 200 700 l 1,4,-1
 200 800 l 1,5,-1
 600 800 l 1,6,-1
 600 700 l 1,7,-1
 300 700 l 1,8,-1
 300 600 l 1,9,-1
 200 600 l 1,10,-1
 200 200 l 1,11,-1
 300 200 l 1,12,-1
 300 100 l 1,13,-1
 600 100 l 1,14,-1
 600 0 l 1,15,-1
 200 0 l 1,16,-1
 200 100 l 1,17,-1
 100 100 l 1,18,-1
 100 200 l 1,19,-1
 0 200 l 1,0,-1
EndSplineSet
Validated: 1
EndChar

StartChar: D
Encoding: 68 68 52
Width: 700
VWidth: 1400
Flags: W
LayerCount: 2
Fore
SplineSet
0 0 m 1,0,-1
 0 800 l 1,1,-1
 400 800 l 1,2,-1
 400 700 l 1,3,-1
 500 700 l 1,4,-1
 500 600 l 1,5,-1
 600 600 l 1,6,-1
 600 200 l 1,7,-1
 500 200 l 1,8,-1
 500 100 l 1,9,-1
 400 100 l 1,10,-1
 400 0 l 1,11,-1
 0 0 l 1,0,-1
200 100 m 1,12,-1
 300 100 l 1,13,-1
 300 200 l 1,14,-1
 400 200 l 1,15,-1
 400 600 l 1,16,-1
 300 600 l 1,17,-1
 300 700 l 1,18,-1
 200 700 l 1,19,-1
 200 100 l 1,12,-1
EndSplineSet
Validated: 1
EndChar

StartChar: E
Encoding: 69 69 53
Width: 700
VWidth: 1400
Flags: W
LayerCount: 2
Fore
SplineSet
0 0 m 1,0,-1
 0 800 l 1,1,-1
 600 800 l 1,2,-1
 600 700 l 1,3,-1
 200 700 l 1,4,-1
 200 500 l 1,5,-1
 500 500 l 1,6,-1
 500 400 l 1,7,-1
 200 400 l 1,8,-1
 200 100 l 1,9,-1
 600 100 l 1,10,-1
 600 0 l 1,11,-1
 0 0 l 1,0,-1
EndSplineSet
Validated: 1
EndChar

StartChar: F
Encoding: 70 70 54
Width: 700
VWidth: 1400
Flags: W
LayerCount: 2
Fore
SplineSet
0 0 m 1,0,-1
 0 800 l 1,1,-1
 600 800 l 1,2,-1
 600 700 l 1,3,-1
 200 700 l 1,4,-1
 200 500 l 1,5,-1
 500 500 l 1,6,-1
 500 400 l 1,7,-1
 200 400 l 1,8,-1
 200 0 l 1,9,-1
 0 0 l 1,0,-1
EndSplineSet
Validated: 1
EndChar

StartChar: G
Encoding: 71 71 55
Width: 700
VWidth: 1400
Flags: W
LayerCount: 2
Fore
SplineSet
0 200 m 1,0,-1
 0 600 l 1,1,-1
 100 600 l 1,2,-1
 100 700 l 1,3,-1
 200 700 l 1,4,-1
 200 800 l 1,5,-1
 600 800 l 1,6,-1
 600 700 l 1,7,-1
 300 700 l 1,8,-1
 300 600 l 1,9,-1
 200 600 l 1,10,-1
 200 200 l 1,11,-1
 300 200 l 1,12,-1
 300 100 l 1,13,-1
 400 100 l 1,14,-1
 400 500 l 1,15,-1
 600 500 l 1,16,-1
 600 0 l 1,17,-1
 200 0 l 1,18,-1
 200 100 l 1,19,-1
 100 100 l 1,20,-1
 100 200 l 1,21,-1
 0 200 l 1,0,-1
EndSplineSet
Validated: 1
EndChar

StartChar: H
Encoding: 72 72 56
Width: 700
VWidth: 1400
Flags: W
LayerCount: 2
Fore
SplineSet
0 0 m 1,0,-1
 0 800 l 1,1,-1
 200 800 l 1,2,-1
 200 500 l 1,3,-1
 400 500 l 1,4,-1
 400 800 l 1,5,-1
 600 800 l 1,6,-1
 600 0 l 1,7,-1
 400 0 l 1,8,-1
 400 400 l 1,9,-1
 200 400 l 1,10,-1
 200 0 l 1,11,-1
 0 0 l 1,0,-1
EndSplineSet
Validated: 1
EndChar

StartChar: I
Encoding: 73 73 57
Width: 700
VWidth: 1400
Flags: W
LayerCount: 2
Fore
SplineSet
0 0 m 1,0,-1
 0 100 l 1,1,-1
 200 100 l 1,2,-1
 200 700 l 1,3,-1
 0 700 l 1,4,-1
 0 800 l 1,5,-1
 600 800 l 1,6,-1
 600 700 l 1,7,-1
 400 700 l 1,8,-1
 400 100 l 1,9,-1
 600 100 l 1,10,-1
 600 0 l 1,11,-1
 0 0 l 1,0,-1
EndSplineSet
Validated: 1
EndChar

StartChar: J
Encoding: 74 74 58
Width: 700
VWidth: 1400
Flags: W
LayerCount: 2
Fore
SplineSet
0 100 m 1,0,-1
 0 300 l 1,1,-1
 200 300 l 1,2,-1
 200 100 l 1,3,-1
 400 100 l 1,4,-1
 400 800 l 1,5,-1
 600 800 l 1,6,-1
 600 100 l 1,7,-1
 500 100 l 1,8,-1
 500 0 l 1,9,-1
 100 0 l 1,10,-1
 100 100 l 1,11,-1
 0 100 l 1,0,-1
EndSplineSet
Validated: 1
EndChar

StartChar: K
Encoding: 75 75 59
Width: 700
VWidth: 1400
Flags: W
LayerCount: 2
Fore
SplineSet
0 0 m 1,0,-1
 0 800 l 1,1,-1
 200 800 l 1,2,-1
 200 600 l 1,3,-1
 300 600 l 1,4,-1
 300 700 l 1,5,-1
 400 700 l 1,6,-1
 400 800 l 1,7,-1
 600 800 l 1,8,-1
 600 700 l 1,9,-1
 500 700 l 1,10,-1
 500 600 l 1,11,-1
 400 600 l 1,12,-1
 400 500 l 1,13,-1
 300 500 l 1,14,-1
 300 300 l 1,15,-1
 400 300 l 1,16,-1
 400 200 l 1,17,-1
 500 200 l 1,18,-1
 500 100 l 1,19,-1
 600 100 l 1,20,-1
 600 0 l 1,21,-1
 400 0 l 1,22,-1
 400 100 l 1,23,-1
 300 100 l 1,24,-1
 300 200 l 1,25,-1
 200 200 l 1,26,-1
 200 0 l 1,27,-1
 0 0 l 1,0,-1
EndSplineSet
Validated: 1
EndChar

StartChar: L
Encoding: 76 76 60
Width: 700
VWidth: 1400
Flags: W
LayerCount: 2
Fore
SplineSet
0 0 m 1,0,-1
 0 800 l 1,1,-1
 200 800 l 1,2,-1
 200 100 l 1,3,-1
 600 100 l 1,4,-1
 600 0 l 1,5,-1
 0 0 l 1,0,-1
EndSplineSet
Validated: 1
EndChar

StartChar: M
Encoding: 77 77 61
Width: 700
VWidth: 1400
Flags: W
LayerCount: 2
Fore
SplineSet
400 400 m 9,0,-1
 200 400 l 17,1,-1
 200 0 l 1,2,-1
 0 0 l 1,3,-1
 0 800 l 1,4,-1
 100 800 l 1,5,-1
 100 700 l 1,6,-1
 200 700 l 1,7,-1
 200 600 l 1,8,-1
 400 600 l 1,9,-1
 400 700 l 1,10,-1
 500 700 l 1,11,-1
 500 800 l 1,12,-1
 600 800 l 1,13,-1
 600 0 l 1,14,-1
 400 0 l 1,15,-1
 400 400 l 9,0,-1
EndSplineSet
Validated: 1
EndChar

StartChar: N
Encoding: 78 78 62
Width: 700
VWidth: 1400
Flags: W
LayerCount: 2
Fore
SplineSet
0 0 m 1,0,-1
 0 800 l 1,1,-1
 200 800 l 1,2,-1
 200 700 l 1,3,-1
 300 700 l 1,4,-1
 300 600 l 1,5,-1
 400 600 l 1,6,-1
 400 800 l 1,7,-1
 600 800 l 1,8,-1
 600 0 l 1,9,-1
 400 0 l 1,10,-1
 400 400 l 1,11,-1
 300 400 l 1,12,-1
 300 500 l 1,13,-1
 200 500 l 1,14,-1
 200 0 l 1,15,-1
 0 0 l 1,0,-1
EndSplineSet
Validated: 1
EndChar

StartChar: O
Encoding: 79 79 63
Width: 700
VWidth: 1400
Flags: W
LayerCount: 2
Fore
SplineSet
0 100 m 1,0,-1
 0 700 l 1,1,-1
 100 700 l 1,2,-1
 100 800 l 1,3,-1
 500 800 l 1,4,-1
 500 700 l 1,5,-1
 600 700 l 1,6,-1
 600 100 l 1,7,-1
 500 100 l 1,8,-1
 500 0 l 1,9,-1
 100 0 l 1,10,-1
 100 100 l 1,11,-1
 0 100 l 1,0,-1
200 100 m 1,12,-1
 400 100 l 1,13,-1
 400 700 l 1,14,-1
 200 700 l 1,15,-1
 200 100 l 1,12,-1
EndSplineSet
Validated: 1
EndChar

StartChar: P
Encoding: 80 80 64
Width: 700
VWidth: 1400
Flags: W
LayerCount: 2
Fore
SplineSet
0 0 m 1,0,-1
 0 800 l 1,1,-1
 500 800 l 1,2,-1
 500 700 l 1,3,-1
 600 700 l 1,4,-1
 600 400 l 1,5,-1
 500 400 l 1,6,-1
 500 300 l 1,7,-1
 200 300 l 1,8,-1
 200 0 l 1,9,-1
 0 0 l 1,0,-1
200 400 m 1,10,-1
 400 400 l 1,11,-1
 400 700 l 1,12,-1
 200 700 l 1,13,-1
 200 400 l 1,10,-1
EndSplineSet
Validated: 1
EndChar

StartChar: Q
Encoding: 81 81 65
Width: 700
VWidth: 1400
Flags: W
LayerCount: 2
Fore
SplineSet
0 100 m 1,0,-1
 0 700 l 1,1,-1
 100 700 l 1,2,-1
 100 800 l 1,3,-1
 500 800 l 1,4,-1
 500 700 l 1,5,-1
 600 700 l 1,6,-1
 600 100 l 1,7,-1
 500 100 l 1,8,-1
 500 -100 l 1,9,-1
 600 -100 l 1,10,-1
 600 -200 l 1,11,-1
 400 -200 l 1,12,-1
 400 -100 l 1,13,-1
 300 -100 l 1,14,-1
 300 0 l 1,15,-1
 100 0 l 1,16,-1
 100 100 l 1,17,-1
 0 100 l 1,0,-1
200 100 m 1,18,-1
 400 100 l 1,19,-1
 400 700 l 1,20,-1
 200 700 l 1,21,-1
 200 100 l 1,18,-1
EndSplineSet
Validated: 1
EndChar

StartChar: R
Encoding: 82 82 66
Width: 700
VWidth: 1400
Flags: W
LayerCount: 2
Fore
SplineSet
0 0 m 1,0,-1
 0 800 l 1,1,-1
 500 800 l 1,2,-1
 500 700 l 1,3,-1
 600 700 l 1,4,-1
 600 400 l 1,5,-1
 500 400 l 1,6,-1
 500 300 l 1,7,-1
 400 300 l 1,8,-1
 400 200 l 1,9,-1
 500 200 l 1,10,-1
 500 100 l 1,11,-1
 600 100 l 1,12,-1
 600 0 l 1,13,-1
 400 0 l 1,14,-1
 400 100 l 1,15,-1
 300 100 l 1,16,-1
 300 200 l 1,17,-1
 200 200 l 1,18,-1
 200 0 l 1,19,-1
 0 0 l 1,0,-1
200 400 m 1,20,-1
 400 400 l 1,21,-1
 400 700 l 1,22,-1
 200 700 l 1,23,-1
 200 400 l 1,20,-1
EndSplineSet
Validated: 1
EndChar

StartChar: S
Encoding: 83 83 67
Width: 700
VWidth: 1400
Flags: W
LayerCount: 2
Fore
SplineSet
0 0 m 1,0,-1
 0 100 l 1,1,-1
 400 100 l 1,2,-1
 400 300 l 1,3,-1
 300 300 l 1,4,-1
 300 400 l 1,5,-1
 100 400 l 1,6,-1
 100 500 l 1,7,-1
 0 500 l 1,8,-1
 0 700 l 1,9,-1
 100 700 l 1,10,-1
 100 800 l 1,11,-1
 600 800 l 1,12,-1
 600 700 l 1,13,-1
 200 700 l 1,14,-1
 200 500 l 1,15,-1
 400 500 l 1,16,-1
 400 400 l 1,17,-1
 500 400 l 1,18,-1
 500 300 l 1,19,-1
 600 300 l 1,20,-1
 600 100 l 1,21,-1
 500 100 l 1,22,-1
 500 0 l 1,23,-1
 0 0 l 1,0,-1
EndSplineSet
Validated: 1
EndChar

StartChar: T
Encoding: 84 84 68
Width: 700
VWidth: 1400
Flags: W
LayerCount: 2
Fore
SplineSet
400 0 m 1,0,-1
 200 0 l 1,1,-1
 200 700 l 1,2,-1
 0 700 l 1,3,-1
 0 800 l 1,4,-1
 600 800 l 1,5,-1
 600 700 l 1,6,-1
 400 700 l 1,7,-1
 400 0 l 1,0,-1
EndSplineSet
Validated: 1
EndChar

StartChar: U
Encoding: 85 85 69
Width: 700
VWidth: 1400
Flags: W
LayerCount: 2
Fore
SplineSet
0 100 m 1,0,-1
 0 800 l 1,1,-1
 200 800 l 1,2,-1
 200 100 l 1,3,-1
 400 100 l 1,4,-1
 400 800 l 1,5,-1
 600 800 l 1,6,-1
 600 100 l 1,7,-1
 500 100 l 1,8,-1
 500 0 l 1,9,-1
 100 0 l 1,10,-1
 100 100 l 1,11,-1
 0 100 l 1,0,-1
EndSplineSet
Validated: 1
EndChar

StartChar: V
Encoding: 86 86 70
Width: 700
VWidth: 1400
Flags: W
LayerCount: 2
Fore
SplineSet
0 200 m 1,0,-1
 0 800 l 1,1,-1
 200 800 l 1,2,-1
 200 200 l 1,3,-1
 400 200 l 1,4,-1
 400 800 l 1,5,-1
 600 800 l 1,6,-1
 600 200 l 1,7,-1
 500 200 l 1,8,-1
 500 100 l 1,9,-1
 400 100 l 1,10,-1
 400 0 l 1,11,-1
 200 0 l 1,12,-1
 200 100 l 1,13,-1
 100 100 l 1,14,-1
 100 200 l 1,15,-1
 0 200 l 1,0,-1
EndSplineSet
Validated: 1
EndChar

StartChar: W
Encoding: 87 87 71
Width: 700
VWidth: 1400
Flags: WO
LayerCount: 2
Fore
SplineSet
200 400 m 9,0,-1
 400 400 l 17,1,-1
 400 800 l 1,2,-1
 600 800 l 1,3,-1
 600 0 l 1,4,-1
 500 0 l 1,5,-1
 500 100 l 1,6,-1
 400 100 l 1,7,-1
 400 200 l 1,8,-1
 200 200 l 1,9,-1
 200 100 l 1,10,-1
 100 100 l 1,11,-1
 101 0 l 1,12,-1
 0 0 l 1,13,-1
 0 800 l 1,14,-1
 200 800 l 1,15,-1
 200 400 l 9,0,-1
EndSplineSet
Validated: 1
EndChar

StartChar: X
Encoding: 88 88 72
Width: 700
VWidth: 1400
Flags: W
LayerCount: 2
Fore
SplineSet
0 200 m 1,0,-1
 100 200 l 1,1,-1
 100 300 l 1,2,-1
 200 300 l 1,3,-1
 200 500 l 1,4,-1
 100 500 l 1,5,-1
 100 600 l 1,6,-1
 0 600 l 1,7,-1
 0 800 l 1,8,-1
 200 800 l 1,9,-1
 200 600 l 1,10,-1
 400 600 l 1,11,-1
 400 800 l 1,12,-1
 600 800 l 1,13,-1
 600 600 l 1,14,-1
 500 600 l 1,15,-1
 500 500 l 1,16,-1
 400 500 l 1,17,-1
 400 300 l 1,18,-1
 500 300 l 1,19,-1
 500 200 l 1,20,-1
 600 200 l 1,21,-1
 600 0 l 1,22,-1
 400 0 l 1,23,-1
 400 200 l 1,24,-1
 200 200 l 1,25,-1
 200 0 l 1,26,-1
 0 0 l 1,27,-1
 0 200 l 1,0,-1
EndSplineSet
Validated: 1
EndChar

StartChar: Y
Encoding: 89 89 73
Width: 700
VWidth: 1400
Flags: W
LayerCount: 2
Fore
SplineSet
0 500 m 1,0,-1
 0 800 l 1,1,-1
 200 800 l 1,2,-1
 200 500 l 1,3,-1
 400 500 l 1,4,-1
 400 800 l 1,5,-1
 600 800 l 1,6,-1
 600 500 l 1,7,-1
 500 500 l 1,8,-1
 500 400 l 1,9,-1
 400 400 l 1,10,-1
 400 0 l 1,11,-1
 200 0 l 1,12,-1
 200 400 l 1,13,-1
 100 400 l 1,14,-1
 100 500 l 1,15,-1
 0 500 l 1,0,-1
EndSplineSet
Validated: 1
EndChar

StartChar: Z
Encoding: 90 90 74
Width: 700
VWidth: 1400
Flags: W
LayerCount: 2
Fore
SplineSet
0 0 m 1,0,-1
 0 100 l 1,1,-1
 100 100 l 1,2,-1
 100 300 l 1,3,-1
 200 300 l 1,4,-1
 200 500 l 1,5,-1
 300 500 l 1,6,-1
 300 700 l 1,7,-1
 0 700 l 1,8,-1
 0 800 l 1,9,-1
 600 800 l 1,10,-1
 600 700 l 1,11,-1
 500 700 l 1,12,-1
 500 500 l 1,13,-1
 400 500 l 1,14,-1
 400 300 l 1,15,-1
 300 300 l 1,16,-1
 300 100 l 1,17,-1
 600 100 l 1,18,-1
 600 0 l 1,19,-1
 0 0 l 1,0,-1
EndSplineSet
Validated: 1
EndChar

StartChar: bracketleft
Encoding: 91 91 75
Width: 700
VWidth: 1400
Flags: W
LayerCount: 2
Fore
SplineSet
100 -200 m 1,0,-1
 100 900 l 1,1,-1
 500 900 l 1,2,-1
 500 800 l 1,3,-1
 300 800 l 1,4,-1
 300 -100 l 1,5,-1
 500 -100 l 1,6,-1
 500 -200 l 1,7,-1
 100 -200 l 1,0,-1
EndSplineSet
Validated: 1
EndChar

StartChar: backslash
Encoding: 92 92 76
Width: 700
VWidth: 1400
Flags: W
LayerCount: 2
Fore
SplineSet
0 700 m 1,0,-1
 0 900 l 1,1,-1
 200 900 l 1,2,-1
 200 700 l 1,3,-1
 300 700 l 1,4,-1
 300 500 l 1,5,-1
 400 500 l 1,6,-1
 400 300 l 1,7,-1
 500 300 l 1,8,-1
 500 100 l 1,9,-1
 600 100 l 1,10,-1
 600 -100 l 1,11,-1
 400 -100 l 1,12,-1
 400 100 l 1,13,-1
 300 100 l 1,14,-1
 300 300 l 1,15,-1
 200 300 l 1,16,-1
 200 500 l 1,17,-1
 100 500 l 1,18,-1
 100 700 l 1,19,-1
 0 700 l 1,0,-1
EndSplineSet
Validated: 1
EndChar

StartChar: bracketright
Encoding: 93 93 77
Width: 700
VWidth: 1400
Flags: W
LayerCount: 2
Fore
SplineSet
100 -200 m 1,0,-1
 100 -100 l 1,1,-1
 300 -100 l 1,2,-1
 300 800 l 1,3,-1
 100 800 l 1,4,-1
 100 900 l 1,5,-1
 500 900 l 1,6,-1
 500 -200 l 1,7,-1
 100 -200 l 1,0,-1
EndSplineSet
Validated: 1
EndChar

StartChar: asciicircum
Encoding: 94 94 78
Width: 700
VWidth: 1400
Flags: W
LayerCount: 2
Fore
SplineSet
0 500 m 1,0,-1
 0 600 l 1,1,-1
 100 600 l 1,2,-1
 100 700 l 1,3,-1
 200 700 l 1,4,-1
 200 800 l 1,5,-1
 400 800 l 1,6,-1
 400 700 l 1,7,-1
 500 700 l 1,8,-1
 500 600 l 1,9,-1
 600 600 l 1,10,-1
 600 500 l 1,11,-1
 400 500 l 1,12,-1
 400 600 l 1,13,-1
 200 600 l 1,14,-1
 200 500 l 1,15,-1
 0 500 l 1,0,-1
EndSplineSet
Validated: 1
EndChar

StartChar: underscore
Encoding: 95 95 79
Width: 700
VWidth: 1400
Flags: W
LayerCount: 2
Fore
SplineSet
0 -200 m 1,0,-1
 0 -100 l 1,1,-1
 700 -100 l 1,2,-1
 700 -200 l 1,3,-1
 0 -200 l 1,0,-1
EndSplineSet
Validated: 1
EndChar

StartChar: grave
Encoding: 96 96 80
Width: 700
VWidth: 1400
Flags: W
LayerCount: 2
Fore
SplineSet
400 700 m 1,0,-1
 500 700 l 1,1,-1
 500 600 l 1,2,-1
 300 600 l 1,3,-1
 300 700 l 1,4,-1
 200 700 l 1,5,-1
 200 800 l 1,6,-1
 100 800 l 1,7,-1
 100 900 l 1,8,-1
 300 900 l 1,9,-1
 300 800 l 1,10,-1
 400 800 l 1,11,-1
 400 700 l 1,0,-1
EndSplineSet
Validated: 1
EndChar

StartChar: a
Encoding: 97 97 81
Width: 700
VWidth: 1400
Flags: W
LayerCount: 2
Fore
SplineSet
0 100 m 1,0,-1
 0 300 l 1,1,-1
 100 300 l 1,2,-1
 100 400 l 1,3,-1
 400 400 l 1,4,-1
 400 500 l 1,5,-1
 100 500 l 1,6,-1
 100 600 l 1,7,-1
 500 600 l 1,8,-1
 500 500 l 1,9,-1
 600 500 l 1,10,-1
 600 0 l 1,11,-1
 100 0 l 1,12,-1
 100 100 l 1,13,-1
 0 100 l 1,0,-1
200 100 m 1,14,-1
 400 100 l 1,15,-1
 400 300 l 1,16,-1
 200 300 l 1,17,-1
 200 100 l 1,14,-1
EndSplineSet
Validated: 1
EndChar

StartChar: b
Encoding: 98 98 82
Width: 700
VWidth: 1400
Flags: W
LayerCount: 2
Fore
SplineSet
0 0 m 1,0,-1
 0 900 l 1,1,-1
 200 900 l 1,2,-1
 200 600 l 1,3,-1
 500 600 l 1,4,-1
 500 500 l 1,5,-1
 600 500 l 1,6,-1
 600 100 l 1,7,-1
 500 100 l 1,8,-1
 500 0 l 1,9,-1
 0 0 l 1,0,-1
200 100 m 1,10,-1
 400 100 l 1,11,-1
 400 500 l 1,12,-1
 200 500 l 1,13,-1
 200 100 l 1,10,-1
EndSplineSet
Validated: 1
EndChar

StartChar: c
Encoding: 99 99 83
Width: 700
VWidth: 1400
Flags: W
LayerCount: 2
Fore
SplineSet
0 100 m 1,0,-1
 0 500 l 1,1,-1
 100 500 l 1,2,-1
 100 600 l 1,3,-1
 600 600 l 1,4,-1
 600 500 l 1,5,-1
 200 500 l 1,6,-1
 200 100 l 1,7,-1
 600 100 l 1,8,-1
 600 0 l 1,9,-1
 100 0 l 1,10,-1
 100 100 l 1,11,-1
 0 100 l 1,0,-1
EndSplineSet
Validated: 1
EndChar

StartChar: d
Encoding: 100 100 84
Width: 700
VWidth: 1400
Flags: W
LayerCount: 2
Fore
SplineSet
0 100 m 1,0,-1
 0 500 l 1,1,-1
 100 500 l 1,2,-1
 100 600 l 1,3,-1
 400 600 l 1,4,-1
 400 800 l 1,5,-1
 600 800 l 1,6,-1
 600 0 l 1,7,-1
 100 0 l 1,8,-1
 100 100 l 1,9,-1
 0 100 l 1,0,-1
200 100 m 1,10,-1
 400 100 l 1,11,-1
 400 500 l 1,12,-1
 200 500 l 1,13,-1
 200 100 l 1,10,-1
EndSplineSet
Validated: 1
EndChar

StartChar: e
Encoding: 101 101 85
Width: 700
VWidth: 1400
Flags: W
LayerCount: 2
Fore
SplineSet
0 100 m 1,0,-1
 0 500 l 1,1,-1
 100 500 l 1,2,-1
 100 600 l 1,3,-1
 500 600 l 1,4,-1
 500 500 l 1,5,-1
 600 500 l 1,6,-1
 600 300 l 1,7,-1
 200 300 l 1,8,-1
 200 100 l 1,9,-1
 600 100 l 1,10,-1
 600 0 l 1,11,-1
 100 0 l 1,12,-1
 100 100 l 1,13,-1
 0 100 l 1,0,-1
200 500 m 1,14,-1
 200 400 l 1,15,-1
 400 400 l 1,16,-1
 400 500 l 1,17,-1
 200 500 l 1,14,-1
EndSplineSet
Validated: 1
EndChar

StartChar: f
Encoding: 102 102 86
Width: 700
VWidth: 1400
Flags: W
LayerCount: 2
Fore
SplineSet
0 500 m 1,0,-1
 0 600 l 1,1,-1
 100 600 l 1,2,-1
 100 700 l 1,3,-1
 200 700 l 1,4,-1
 200 800 l 1,5,-1
 600 800 l 1,6,-1
 600 700 l 1,7,-1
 300 700 l 1,8,-1
 300 600 l 1,9,-1
 600 600 l 1,10,-1
 600 500 l 1,11,-1
 300 500 l 1,12,-1
 300 0 l 1,13,-1
 100 0 l 1,14,-1
 100 500 l 1,15,-1
 0 500 l 1,0,-1
EndSplineSet
Validated: 1
EndChar

StartChar: g
Encoding: 103 103 87
Width: 700
VWidth: 1400
Flags: W
LayerCount: 2
Fore
SplineSet
0 100 m 1,0,-1
 0 500 l 1,1,-1
 100 500 l 1,2,-1
 100 600 l 1,3,-1
 600 600 l 1,4,-1
 600 -100 l 1,5,-1
 500 -100 l 1,6,-1
 500 -200 l 1,7,-1
 100 -200 l 1,8,-1
 100 -100 l 1,9,-1
 400 -100 l 1,10,-1
 400 0 l 1,11,-1
 100 0 l 1,12,-1
 100 100 l 1,13,-1
 0 100 l 1,0,-1
200 100 m 1,14,-1
 400 100 l 1,15,-1
 400 500 l 1,16,-1
 200 500 l 1,17,-1
 200 100 l 1,14,-1
EndSplineSet
Validated: 1
EndChar

StartChar: h
Encoding: 104 104 88
Width: 700
VWidth: 1400
Flags: W
LayerCount: 2
Fore
SplineSet
0 0 m 1,0,-1
 0 900 l 1,1,-1
 200 900 l 1,2,-1
 200 600 l 1,3,-1
 500 600 l 1,4,-1
 500 500 l 1,5,-1
 600 500 l 1,6,-1
 600 0 l 1,7,-1
 400 0 l 1,8,-1
 400 500 l 1,9,-1
 200 500 l 1,10,-1
 200 0 l 1,11,-1
 0 0 l 1,0,-1
EndSplineSet
Validated: 1
EndChar

StartChar: i
Encoding: 105 105 89
Width: 700
VWidth: 1400
Flags: W
LayerCount: 2
Fore
SplineSet
0 0 m 1,0,-1
 0 100 l 1,1,-1
 200 100 l 1,2,-1
 200 500 l 1,3,-1
 0 500 l 1,4,-1
 0 600 l 1,5,-1
 400 600 l 1,6,-1
 400 100 l 1,7,-1
 600 100 l 1,8,-1
 600 0 l 1,9,-1
 0 0 l 1,0,-1
200 700 m 1,10,-1
 200 900 l 1,11,-1
 400 900 l 1,12,-1
 400 700 l 1,13,-1
 200 700 l 1,10,-1
EndSplineSet
Validated: 1
EndChar

StartChar: j
Encoding: 106 106 90
Width: 700
VWidth: 1400
Flags: W
LayerCount: 2
Fore
SplineSet
0 -200 m 1,0,-1
 0 -100 l 1,1,-1
 300 -100 l 1,2,-1
 300 500 l 1,3,-1
 100 500 l 1,4,-1
 100 600 l 1,5,-1
 500 600 l 1,6,-1
 500 -100 l 1,7,-1
 400 -100 l 1,8,-1
 400 -200 l 1,9,-1
 0 -200 l 1,0,-1
300 700 m 1,10,-1
 300 900 l 1,11,-1
 500 900 l 1,12,-1
 500 700 l 1,13,-1
 300 700 l 1,10,-1
EndSplineSet
Validated: 1
EndChar

StartChar: k
Encoding: 107 107 91
Width: 700
VWidth: 1400
Flags: W
LayerCount: 2
Fore
SplineSet
0 0 m 1,0,-1
 0 900 l 1,1,-1
 200 900 l 1,2,-1
 200 500 l 1,3,-1
 300 500 l 1,4,-1
 300 600 l 1,5,-1
 500 600 l 1,6,-1
 500 500 l 1,7,-1
 400 500 l 1,8,-1
 400 400 l 1,9,-1
 300 400 l 1,10,-1
 300 300 l 1,11,-1
 400 300 l 1,12,-1
 400 200 l 1,13,-1
 500 200 l 1,14,-1
 500 100 l 1,15,-1
 600 100 l 1,16,-1
 600 0 l 1,17,-1
 400 0 l 1,18,-1
 400 100 l 1,19,-1
 300 100 l 1,20,-1
 300 200 l 1,21,-1
 200 200 l 1,22,-1
 200 0 l 1,23,-1
 0 0 l 1,0,-1
EndSplineSet
Validated: 1
EndChar

StartChar: l
Encoding: 108 108 92
Width: 700
VWidth: 1400
Flags: W
LayerCount: 2
Fore
SplineSet
400 100 m 1,0,-1
 600 100 l 1,1,-1
 600 0 l 1,2,-1
 300 0 l 1,3,-1
 300 100 l 1,4,-1
 200 100 l 1,5,-1
 200 800 l 1,6,-1
 0 800 l 1,7,-1
 0 900 l 1,8,-1
 400 900 l 1,9,-1
 400 100 l 1,0,-1
EndSplineSet
Validated: 1
EndChar

StartChar: m
Encoding: 109 109 93
Width: 700
VWidth: 1400
Flags: W
LayerCount: 2
Fore
SplineSet
0 0 m 1,0,-1
 0 600 l 1,1,-1
 500 600 l 1,2,-1
 500 500 l 1,3,-1
 400 500 l 1,4,-1
 400 0 l 1,5,-1
 300 0 l 1,6,-1
 300 500 l 1,7,-1
 200 500 l 1,8,-1
 200 0 l 1,9,-1
 0 0 l 1,0,-1
500 0 m 1,10,-1
 500 500 l 1,11,-1
 600 500 l 1,12,-1
 600 0 l 1,13,-1
 500 0 l 1,10,-1
EndSplineSet
Validated: 5
EndChar

StartChar: n
Encoding: 110 110 94
Width: 700
VWidth: 1400
Flags: W
LayerCount: 2
Fore
SplineSet
0 0 m 1,0,-1
 0 600 l 1,1,-1
 500 600 l 1,2,-1
 500 500 l 1,3,-1
 600 500 l 1,4,-1
 600 0 l 1,5,-1
 400 0 l 1,6,-1
 400 500 l 1,7,-1
 200 500 l 1,8,-1
 200 0 l 1,9,-1
 0 0 l 1,0,-1
EndSplineSet
Validated: 1
EndChar

StartChar: o
Encoding: 111 111 95
Width: 700
VWidth: 1400
Flags: W
LayerCount: 2
Fore
SplineSet
0 100 m 1,0,-1
 0 500 l 1,1,-1
 100 500 l 1,2,-1
 100 600 l 1,3,-1
 500 600 l 1,4,-1
 500 500 l 1,5,-1
 600 500 l 1,6,-1
 600 100 l 1,7,-1
 500 100 l 1,8,-1
 500 0 l 1,9,-1
 100 0 l 1,10,-1
 100 100 l 1,11,-1
 0 100 l 1,0,-1
200 100 m 1,12,-1
 400 100 l 1,13,-1
 400 500 l 1,14,-1
 200 500 l 1,15,-1
 200 100 l 1,12,-1
EndSplineSet
Validated: 1
EndChar

StartChar: p
Encoding: 112 112 96
Width: 700
VWidth: 1400
Flags: W
LayerCount: 2
Fore
SplineSet
0 -300 m 1,0,-1
 0 600 l 1,1,-1
 500 600 l 1,2,-1
 500 500 l 1,3,-1
 600 500 l 1,4,-1
 600 100 l 1,5,-1
 500 100 l 1,6,-1
 500 0 l 1,7,-1
 200 0 l 1,8,-1
 200 -300 l 1,9,-1
 0 -300 l 1,0,-1
200 100 m 1,10,-1
 400 100 l 1,11,-1
 400 500 l 1,12,-1
 200 500 l 1,13,-1
 200 100 l 1,10,-1
EndSplineSet
Validated: 1
EndChar

StartChar: q
Encoding: 113 113 97
Width: 700
VWidth: 1400
Flags: W
LayerCount: 2
Fore
SplineSet
0 100 m 1,0,-1
 0 500 l 1,1,-1
 100 500 l 1,2,-1
 100 600 l 1,3,-1
 600 600 l 1,4,-1
 600 -300 l 1,5,-1
 400 -300 l 1,6,-1
 400 0 l 1,7,-1
 100 0 l 1,8,-1
 100 100 l 1,9,-1
 0 100 l 1,0,-1
200 100 m 1,10,-1
 400 100 l 1,11,-1
 400 500 l 1,12,-1
 200 500 l 1,13,-1
 200 100 l 1,10,-1
EndSplineSet
Validated: 1
EndChar

StartChar: r
Encoding: 114 114 98
Width: 700
VWidth: 1400
Flags: W
LayerCount: 2
Fore
SplineSet
0 0 m 1,0,-1
 0 600 l 1,1,-1
 200 600 l 1,2,-1
 200 500 l 1,3,-1
 300 500 l 1,4,-1
 300 400 l 1,5,-1
 200 400 l 1,6,-1
 200 0 l 1,7,-1
 0 0 l 1,0,-1
600 500 m 1,8,-1
 300 500 l 1,9,-1
 300 600 l 1,10,-1
 600 600 l 1,11,-1
 600 500 l 1,8,-1
EndSplineSet
Validated: 5
EndChar

StartChar: s
Encoding: 115 115 99
Width: 700
VWidth: 1400
Flags: W
LayerCount: 2
Fore
SplineSet
0 0 m 1,0,-1
 0 100 l 1,1,-1
 400 100 l 1,2,-1
 400 200 l 1,3,-1
 200 200 l 1,4,-1
 200 300 l 1,5,-1
 100 300 l 1,6,-1
 100 400 l 1,7,-1
 0 400 l 1,8,-1
 0 500 l 1,9,-1
 100 500 l 1,10,-1
 100 600 l 1,11,-1
 600 600 l 1,12,-1
 600 500 l 1,13,-1
 200 500 l 1,14,-1
 200 400 l 1,15,-1
 400 400 l 1,16,-1
 400 300 l 1,17,-1
 500 300 l 1,18,-1
 500 200 l 1,19,-1
 600 200 l 1,20,-1
 600 100 l 1,21,-1
 500 100 l 1,22,-1
 500 0 l 1,23,-1
 0 0 l 1,0,-1
EndSplineSet
Validated: 1
EndChar

StartChar: t
Encoding: 116 116 100
Width: 700
VWidth: 1400
Flags: W
LayerCount: 2
Fore
SplineSet
0 500 m 1,0,-1
 0 600 l 1,1,-1
 100 600 l 1,2,-1
 100 800 l 1,3,-1
 300 800 l 1,4,-1
 300 600 l 1,5,-1
 600 600 l 1,6,-1
 600 500 l 1,7,-1
 300 500 l 1,8,-1
 300 100 l 1,9,-1
 600 100 l 1,10,-1
 600 0 l 1,11,-1
 200 0 l 1,12,-1
 200 100 l 1,13,-1
 100 100 l 1,14,-1
 100 500 l 1,15,-1
 0 500 l 1,0,-1
EndSplineSet
Validated: 1
EndChar

StartChar: u
Encoding: 117 117 101
Width: 700
VWidth: 1400
Flags: W
LayerCount: 2
Fore
SplineSet
0 100 m 1,0,-1
 0 600 l 1,1,-1
 200 600 l 1,2,-1
 200 100 l 1,3,-1
 400 100 l 1,4,-1
 400 600 l 1,5,-1
 600 600 l 1,6,-1
 600 0 l 1,7,-1
 100 0 l 1,8,-1
 100 100 l 1,9,-1
 0 100 l 1,0,-1
EndSplineSet
Validated: 1
EndChar

StartChar: v
Encoding: 118 118 102
Width: 700
VWidth: 1400
Flags: W
LayerCount: 2
Fore
SplineSet
0 200 m 1,0,-1
 0 600 l 1,1,-1
 200 600 l 1,2,-1
 200 200 l 1,3,-1
 400 200 l 1,4,-1
 400 600 l 1,5,-1
 600 600 l 1,6,-1
 600 200 l 1,7,-1
 500 200 l 1,8,-1
 500 100 l 1,9,-1
 400 100 l 1,10,-1
 400 0 l 1,11,-1
 200 0 l 1,12,-1
 200 100 l 1,13,-1
 100 100 l 1,14,-1
 100 200 l 1,15,-1
 0 200 l 1,0,-1
EndSplineSet
Validated: 1
EndChar

StartChar: w
Encoding: 119 119 103
Width: 700
VWidth: 1400
Flags: W
LayerCount: 2
Fore
SplineSet
0 0 m 1,0,-1
 0 600 l 1,1,-1
 200 600 l 1,2,-1
 200 300 l 1,3,-1
 300 300 l 1,4,-1
 300 400 l 1,5,-1
 400 400 l 1,6,-1
 400 300 l 1,7,-1
 500 300 l 1,8,-1
 500 600 l 1,9,-1
 600 600 l 1,10,-1
 600 0 l 1,11,-1
 400 0 l 1,12,-1
 400 100 l 1,13,-1
 300 100 l 1,14,-1
 300 0 l 1,15,-1
 0 0 l 1,0,-1
EndSplineSet
Validated: 1
EndChar

StartChar: x
Encoding: 120 120 104
Width: 700
VWidth: 1400
Flags: W
LayerCount: 2
Fore
SplineSet
0 0 m 1,0,-1
 0 100 l 1,1,-1
 100 100 l 1,2,-1
 100 200 l 1,3,-1
 200 200 l 1,4,-1
 200 400 l 1,5,-1
 100 400 l 1,6,-1
 100 500 l 1,7,-1
 0 500 l 1,8,-1
 0 600 l 1,9,-1
 200 600 l 1,10,-1
 200 500 l 1,11,-1
 400 500 l 1,12,-1
 400 600 l 1,13,-1
 600 600 l 1,14,-1
 600 500 l 1,15,-1
 500 500 l 1,16,-1
 500 400 l 1,17,-1
 400 400 l 1,18,-1
 400 200 l 1,19,-1
 500 200 l 1,20,-1
 500 100 l 1,21,-1
 600 100 l 1,22,-1
 600 0 l 1,23,-1
 400 0 l 1,24,-1
 400 100 l 1,25,-1
 200 100 l 1,26,-1
 200 0 l 1,27,-1
 0 0 l 1,0,-1
EndSplineSet
Validated: 1
EndChar

StartChar: y
Encoding: 121 121 105
Width: 700
VWidth: 1400
Flags: W
LayerCount: 2
Fore
SplineSet
0 100 m 1,0,-1
 0 600 l 1,1,-1
 200 600 l 1,2,-1
 200 100 l 1,3,-1
 400 100 l 1,4,-1
 400 600 l 1,5,-1
 600 600 l 1,6,-1
 600 -200 l 1,7,-1
 500 -200 l 1,8,-1
 500 -300 l 1,9,-1
 100 -300 l 1,10,-1
 100 -200 l 1,11,-1
 400 -200 l 1,12,-1
 400 0 l 1,13,-1
 100 0 l 1,14,-1
 100 100 l 1,15,-1
 0 100 l 1,0,-1
EndSplineSet
Validated: 1
EndChar

StartChar: z
Encoding: 122 122 106
Width: 700
VWidth: 1400
Flags: W
LayerCount: 2
Fore
SplineSet
0 200 m 1,0,-1
 100 200 l 1,1,-1
 100 300 l 1,2,-1
 200 300 l 1,3,-1
 200 400 l 1,4,-1
 300 400 l 1,5,-1
 300 500 l 1,6,-1
 0 500 l 1,7,-1
 0 600 l 1,8,-1
 600 600 l 1,9,-1
 600 500 l 1,10,-1
 500 500 l 1,11,-1
 500 400 l 1,12,-1
 400 400 l 1,13,-1
 400 300 l 1,14,-1
 300 300 l 1,15,-1
 300 200 l 1,16,-1
 200 200 l 1,17,-1
 200 100 l 1,18,-1
 600 100 l 1,19,-1
 600 0 l 1,20,-1
 0 0 l 1,21,-1
 0 200 l 1,0,-1
EndSplineSet
Validated: 1
EndChar

StartChar: braceleft
Encoding: 123 123 107
Width: 700
VWidth: 1400
Flags: W
LayerCount: 2
Fore
SplineSet
0 300 m 1,0,-1
 0 400 l 1,1,-1
 200 400 l 1,2,-1
 200 800 l 1,3,-1
 300 800 l 1,4,-1
 300 900 l 1,5,-1
 600 900 l 1,6,-1
 600 800 l 1,7,-1
 400 800 l 1,8,-1
 400 400 l 1,9,-1
 300 400 l 1,10,-1
 300 300 l 1,11,-1
 400 300 l 1,12,-1
 400 -100 l 1,13,-1
 600 -100 l 1,14,-1
 600 -200 l 1,15,-1
 300 -200 l 1,16,-1
 300 -100 l 1,17,-1
 200 -100 l 1,18,-1
 200 300 l 1,19,-1
 0 300 l 1,0,-1
EndSplineSet
Validated: 1
EndChar

StartChar: bar
Encoding: 124 124 108
Width: 700
VWidth: 1400
Flags: W
LayerCount: 2
Fore
SplineSet
400 -100 m 1,0,-1
 200 -100 l 1,1,-1
 200 900 l 1,2,-1
 400 900 l 1,3,-1
 400 -100 l 1,0,-1
EndSplineSet
Validated: 1
EndChar

StartChar: braceright
Encoding: 125 125 109
Width: 700
VWidth: 1400
Flags: W
LayerCount: 2
Fore
SplineSet
0 -200 m 1,0,-1
 0 -100 l 1,1,-1
 200 -100 l 1,2,-1
 200 300 l 1,3,-1
 300 300 l 1,4,-1
 300 400 l 1,5,-1
 200 400 l 1,6,-1
 200 800 l 1,7,-1
 0 800 l 1,8,-1
 0 900 l 1,9,-1
 300 900 l 1,10,-1
 300 800 l 1,11,-1
 400 800 l 1,12,-1
 400 400 l 1,13,-1
 600 400 l 1,14,-1
 600 300 l 1,15,-1
 400 300 l 1,16,-1
 400 -100 l 1,17,-1
 300 -100 l 1,18,-1
 300 -200 l 1,19,-1
 0 -200 l 1,0,-1
EndSplineSet
Validated: 1
EndChar

StartChar: asciitilde
Encoding: 126 126 110
Width: 700
VWidth: 1400
Flags: W
LayerCount: 2
Fore
SplineSet
0 500 m 1,0,-1
 0 700 l 1,1,-1
 100 700 l 1,2,-1
 100 800 l 1,3,-1
 300 800 l 1,4,-1
 300 700 l 1,5,-1
 500 700 l 1,6,-1
 500 800 l 1,7,-1
 600 800 l 1,8,-1
 600 600 l 1,9,-1
 500 600 l 1,10,-1
 500 500 l 1,11,-1
 300 500 l 1,12,-1
 300 600 l 1,13,-1
 100 600 l 1,14,-1
 100 500 l 1,15,-1
 0 500 l 1,0,-1
EndSplineSet
Validated: 1
EndChar

StartChar: exclamdown
Encoding: 161 161 112
Width: 700
VWidth: 1400
Flags: W
LayerCount: 2
Fore
SplineSet
100 100 m 1,0,-1
 200 100 l 1,1,-1
 200 300 l 1,2,-1
 400 300 l 1,3,-1
 400 100 l 1,4,-1
 500 100 l 1,5,-1
 500 -100 l 1,6,-1
 400 -100 l 1,7,-1
 400 -200 l 1,8,-1
 200 -200 l 1,9,-1
 200 -100 l 1,10,-1
 100 -100 l 1,11,-1
 100 100 l 1,0,-1
200 500 m 1,12,-1
 200 700 l 1,13,-1
 400 700 l 1,14,-1
 400 500 l 1,15,-1
 200 500 l 1,12,-1
EndSplineSet
Validated: 1
EndChar

StartChar: cent
Encoding: 162 162 113
Width: 700
VWidth: 1400
Flags: W
LayerCount: 2
Fore
SplineSet
1158 400 m 1180,-1,-1
0 200 m 1,1,-1
 0 600 l 1,2,-1
 100 600 l 1,3,-1
 100 700 l 1,4,-1
 300 700 l 1,5,-1
 300 900 l 1,6,-1
 500 900 l 1,7,-1
 500 700 l 1,8,-1
 600 700 l 1,9,-1
 600 600 l 1,10,-1
 200 600 l 1,11,-1
 200 200 l 1,12,-1
 600 200 l 1,13,-1
 600 100 l 1,14,-1
 400 100 l 1,15,-1
 400 -100 l 1,16,-1
 200 -100 l 1,17,-1
 200 100 l 1,18,-1
 100 100 l 1,19,-1
 100 200 l 1,20,-1
 0 200 l 1,1,-1
EndSplineSet
Validated: 1
EndChar

StartChar: sterling
Encoding: 163 163 114
Width: 700
VWidth: 1400
Flags: W
LayerCount: 2
Fore
SplineSet
0 0 m 1,0,-1
 0 100 l 1,1,-1
 100 100 l 1,2,-1
 100 300 l 1,3,-1
 0 300 l 1,4,-1
 0 400 l 1,5,-1
 100 400 l 1,6,-1
 100 700 l 1,7,-1
 200 700 l 1,8,-1
 200 800 l 1,9,-1
 500 800 l 1,10,-1
 500 700 l 1,11,-1
 600 700 l 1,12,-1
 600 600 l 1,13,-1
 400 600 l 1,14,-1
 400 700 l 1,15,-1
 300 700 l 1,16,-1
 300 400 l 1,17,-1
 500 400 l 1,18,-1
 500 300 l 1,19,-1
 300 300 l 1,20,-1
 300 100 l 1,21,-1
 600 100 l 1,22,-1
 600 0 l 1,23,-1
 0 0 l 1,0,-1
EndSplineSet
Validated: 1
EndChar

StartChar: currency
Encoding: 164 164 115
Width: 700
VWidth: 1400
Flags: W
LayerCount: 2
Fore
SplineSet
0 100 m 1,0,-1
 0 200 l 1,1,-1
 100 200 l 1,2,-1
 100 300 l 1,3,-1
 0 300 l 1,4,-1
 0 500 l 1,5,-1
 100 500 l 1,6,-1
 100 600 l 1,7,-1
 0 600 l 1,8,-1
 0 700 l 1,9,-1
 100 700 l 1,10,-1
 100 600 l 1,11,-1
 200 600 l 1,12,-1
 200 700 l 1,13,-1
 400 700 l 1,14,-1
 400 600 l 1,15,-1
 500 600 l 1,16,-1
 500 700 l 1,17,-1
 600 700 l 1,18,-1
 600 600 l 1,19,-1
 500 600 l 1,20,-1
 500 500 l 1,21,-1
 600 500 l 1,22,-1
 600 300 l 1,23,-1
 500 300 l 1,24,-1
 500 200 l 1,25,-1
 600 200 l 1,26,-1
 600 100 l 1,27,-1
 500 100 l 1,28,-1
 500 200 l 1,29,-1
 400 200 l 1,30,-1
 400 100 l 1,31,-1
 200 100 l 1,32,-1
 200 200 l 1,33,-1
 100 200 l 1,34,-1
 100 100 l 1,35,-1
 0 100 l 1,0,-1
200 300 m 1,36,-1
 300 300 l 1,37,-1
 300 200 l 1,38,-1
 400 200 l 1,39,-1
 399 300 l 1,40,-1
 500 300 l 1,41,-1
 500 500 l 1,42,-1
 400 500 l 1,43,-1
 400 600 l 1,44,-1
 300 600 l 1,45,-1
 300 500 l 1,46,-1
 200 500 l 1,47,-1
 200 300 l 1,36,-1
EndSplineSet
Validated: 5
EndChar

StartChar: yen
Encoding: 165 165 116
Width: 700
VWidth: 1400
Flags: W
LayerCount: 2
Fore
SplineSet
0 200 m 1,0,-1
 0 300 l 1,1,-1
 200 300 l 1,2,-1
 200 400 l 1,3,-1
 0 400 l 1,4,-1
 0 500 l 1,5,-1
 200 500 l 1,6,-1
 200 600 l 1,7,-1
 100 600 l 1,8,-1
 100 700 l 1,9,-1
 0 700 l 1,10,-1
 0 800 l 1,11,-1
 200 800 l 1,12,-1
 200 700 l 1,13,-1
 400 700 l 1,14,-1
 400 800 l 1,15,-1
 600 800 l 1,16,-1
 600 700 l 1,17,-1
 500 700 l 1,18,-1
 500 600 l 1,19,-1
 400 600 l 1,20,-1
 400 500 l 1,21,-1
 600 500 l 1,22,-1
 600 400 l 1,23,-1
 400 400 l 1,24,-1
 400 300 l 1,25,-1
 600 300 l 1,26,-1
 600 200 l 1,27,-1
 400 200 l 1,28,-1
 400 0 l 1,29,-1
 200 0 l 1,30,-1
 200 200 l 1,31,-1
 0 200 l 1,0,-1
EndSplineSet
Validated: 1
EndChar

StartChar: brokenbar
Encoding: 166 166 117
Width: 700
VWidth: 1400
Flags: W
LayerCount: 2
Fore
SplineSet
400 -100 m 1,0,-1
 200 -100 l 1,1,-1
 200 300 l 1,2,-1
 400 300 l 1,3,-1
 400 -100 l 1,0,-1
400 400 m 1,4,-1
 200 400 l 1,5,-1
 200 800 l 1,6,-1
 400 800 l 1,7,-1
 400 400 l 1,4,-1
EndSplineSet
Validated: 1
EndChar

StartChar: dieresis
Encoding: 168 168 118
Width: 700
VWidth: 1400
Flags: W
LayerCount: 2
Fore
SplineSet
0 700 m 1,0,-1
 0 900 l 1,1,-1
 200 900 l 1,2,-1
 200 700 l 1,3,-1
 0 700 l 1,0,-1
500 700 m 1,4,-1
 300 700 l 1,5,-1
 300 900 l 1,6,-1
 500 900 l 1,7,-1
 500 700 l 1,4,-1
EndSplineSet
Validated: 1
EndChar

StartChar: copyright
Encoding: 169 169 119
Width: 700
VWidth: 1400
Flags: W
LayerCount: 2
Fore
SplineSet
0 100 m 1,0,-1
 0 700 l 1,1,-1
 100 700 l 1,2,-1
 100 100 l 1,3,-1
 0 100 l 1,0,-1
100 100 m 1,4,-1
 500 100 l 1,5,-1
 500 0 l 1,6,-1
 100 0 l 1,7,-1
 100 100 l 1,4,-1
100 700 m 1,8,-1
 100 800 l 1,9,-1
 500 800 l 1,10,-1
 500 700 l 1,11,-1
 100 700 l 1,8,-1
200 500 m 1,12,-1
 300 500 l 1,13,-1
 300 300 l 1,14,-1
 200 300 l 1,15,-1
 200 500 l 1,12,-1
300 200 m 1,16,-1
 300 300 l 1,17,-1
 400 300 l 1,18,-1
 400 200 l 1,19,-1
 300 200 l 1,16,-1
300 500 m 1,20,-1
 300 600 l 1,21,-1
 400 600 l 1,22,-1
 400 500 l 1,23,-1
 300 500 l 1,20,-1
500 100 m 1,24,-1
 500 700 l 1,25,-1
 600 700 l 1,26,-1
 600 100 l 1,27,-1
 500 100 l 1,24,-1
EndSplineSet
Validated: 5
EndChar

StartChar: guillemotleft
Encoding: 171 171 120
Width: 700
VWidth: 1400
Flags: W
LayerCount: 2
Fore
SplineSet
0 300 m 1,0,-1
 0 400 l 1,1,-1
 100 400 l 1,2,-1
 100 500 l 1,3,-1
 200 500 l 1,4,-1
 200 600 l 1,5,-1
 300 600 l 1,6,-1
 300 400 l 1,7,-1
 200 400 l 1,8,-1
 200 300 l 1,9,-1
 300 300 l 1,10,-1
 300 100 l 1,11,-1
 200 100 l 1,12,-1
 200 200 l 1,13,-1
 100 200 l 1,14,-1
 100 300 l 1,15,-1
 0 300 l 1,0,-1
400 300 m 1,16,-1
 300 300 l 1,17,-1
 300 400 l 1,18,-1
 400 400 l 1,19,-1
 400 500 l 1,20,-1
 500 500 l 1,21,-1
 500 600 l 1,22,-1
 600 600 l 1,23,-1
 600 400 l 1,24,-1
 500 400 l 1,25,-1
 500 300 l 1,26,-1
 600 300 l 1,27,-1
 600 100 l 1,28,-1
 500 100 l 1,29,-1
 500 200 l 1,30,-1
 400 200 l 1,31,-1
 400 300 l 1,16,-1
EndSplineSet
Validated: 5
EndChar

StartChar: hyphen
Encoding: 173 173 121
Width: 700
VWidth: 1400
Flags: W
LayerCount: 2
Fore
SplineSet
0 300 m 1,0,-1
 0 400 l 1,1,-1
 600 400 l 1,2,-1
 600 300 l 1,3,-1
 0 300 l 1,0,-1
EndSplineSet
Validated: 2097153
EndChar

StartChar: degree
Encoding: 176 176 122
Width: 700
VWidth: 1400
Flags: W
LayerCount: 2
Fore
SplineSet
0 500 m 1,0,-1
 0 700 l 1,1,-1
 100 700 l 1,2,-1
 100 800 l 1,3,-1
 400 800 l 1,4,-1
 400 700 l 1,5,-1
 500 700 l 1,6,-1
 500 500 l 1,7,-1
 400 500 l 1,8,-1
 400 400 l 1,9,-1
 100 400 l 1,10,-1
 100 500 l 1,11,-1
 0 500 l 1,0,-1
200 500 m 1,12,-1
 300 500 l 1,13,-1
 300 700 l 1,14,-1
 200 700 l 1,15,-1
 200 500 l 1,12,-1
EndSplineSet
Validated: 1
EndChar

StartChar: acute
Encoding: 180 180 123
Width: 700
VWidth: 1400
Flags: W
LayerCount: 2
Fore
SplineSet
400 700 m 1,0,-1
 200 700 l 1,1,-1
 200 800 l 1,2,-1
 300 800 l 1,3,-1
 300 900 l 1,4,-1
 500 900 l 1,5,-1
 500 800 l 1,6,-1
 400 800 l 1,7,-1
 400 700 l 1,0,-1
EndSplineSet
Validated: 1
EndChar

StartChar: cedilla
Encoding: 184 184 124
Width: 700
VWidth: 1400
Flags: W
LayerCount: 2
Fore
SplineSet
400 -100 m 1,0,-1
 400 -200 l 1,1,-1
 100 -200 l 1,2,-1
 100 -100 l 1,3,-1
 300 -100 l 1,4,-1
 300 0 l 1,5,-1
 500 0 l 1,6,-1
 500 -100 l 1,7,-1
 400 -100 l 1,0,-1
EndSplineSet
Validated: 1
EndChar

StartChar: guillemotright
Encoding: 187 187 125
Width: 700
VWidth: 1400
Flags: W
LayerCount: 2
Fore
SplineSet
0 300 m 1,0,-1
 100 300 l 1,1,-1
 100 400 l 1,2,-1
 0 400 l 1,3,-1
 0 600 l 1,4,-1
 100 600 l 1,5,-1
 100 500 l 1,6,-1
 200 500 l 1,7,-1
 200 400 l 1,8,-1
 300 400 l 1,9,-1
 300 300 l 1,10,-1
 200 300 l 1,11,-1
 200 200 l 1,12,-1
 100 200 l 1,13,-1
 100 100 l 1,14,-1
 0 100 l 1,15,-1
 0 300 l 1,0,-1
400 300 m 1,16,-1
 400 400 l 1,17,-1
 300 400 l 1,18,-1
 300 600 l 1,19,-1
 400 600 l 1,20,-1
 400 500 l 1,21,-1
 500 500 l 1,22,-1
 500 400 l 1,23,-1
 600 400 l 1,24,-1
 600 300 l 1,25,-1
 500 300 l 1,26,-1
 500 200 l 1,27,-1
 400 200 l 1,28,-1
 400 100 l 1,29,-1
 300 100 l 1,30,-1
 300 300 l 1,31,-1
 400 300 l 1,16,-1
EndSplineSet
Validated: 5
EndChar

StartChar: questiondown
Encoding: 191 191 126
Width: 700
VWidth: 1400
Flags: W
LayerCount: 2
Fore
SplineSet
0 100 m 1,0,-1
 100 100 l 1,1,-1
 100 200 l 1,2,-1
 200 200 l 1,3,-1
 200 300 l 1,4,-1
 400 300 l 1,5,-1
 400 200 l 1,6,-1
 300 200 l 1,7,-1
 300 100 l 1,8,-1
 200 100 l 1,9,-1
 200 -100 l 1,10,-1
 500 -100 l 1,11,-1
 500 -200 l 1,12,-1
 100 -200 l 1,13,-1
 100 -100 l 1,14,-1
 0 -100 l 1,15,-1
 0 100 l 1,0,-1
200 500 m 1,16,-1
 200 700 l 1,17,-1
 400 700 l 1,18,-1
 400 500 l 1,19,-1
 200 500 l 1,16,-1
500 -100 m 1,20,-1
 500 0 l 1,21,-1
 600 0 l 1,22,-1
 600 -100 l 1,23,-1
 500 -100 l 1,20,-1
EndSplineSet
Validated: 5
EndChar

StartChar: Agrave
Encoding: 192 192 127
Width: 700
VWidth: 1400
Flags: W
LayerCount: 2
Fore
SplineSet
0 0 m 1,0,-1
 0 500 l 1,1,-1
 100 500 l 1,2,-1
 100 600 l 1,3,-1
 200 600 l 1,4,-1
 200 700 l 1,5,-1
 400 700 l 1,6,-1
 400 600 l 1,7,-1
 500 600 l 1,8,-1
 500 500 l 1,9,-1
 600 500 l 1,10,-1
 600 0 l 1,11,-1
 400 0 l 1,12,-1
 400 200 l 1,13,-1
 200 200 l 1,14,-1
 200 0 l 1,15,-1
 0 0 l 1,0,-1
200 500 m 1,16,-1
 200 300 l 1,17,-1
 400 300 l 1,18,-1
 400 500 l 1,19,-1
 200 500 l 1,16,-1
200 900 m 1,20,-1
 100 900 l 1,21,-1
 100 1000 l 1,22,-1
 300 1000 l 1,23,-1
 300 900 l 1,24,-1
 400 900 l 1,25,-1
 400 800 l 1,26,-1
 200 800 l 1,27,-1
 200 900 l 1,20,-1
EndSplineSet
Validated: 1
EndChar

StartChar: Aacute
Encoding: 193 193 128
Width: 700
VWidth: 1400
Flags: W
LayerCount: 2
Fore
SplineSet
0 0 m 1,0,-1
 0 500 l 1,1,-1
 100 500 l 1,2,-1
 100 600 l 1,3,-1
 200 600 l 1,4,-1
 200 700 l 1,5,-1
 400 700 l 1,6,-1
 400 600 l 1,7,-1
 500 600 l 1,8,-1
 500 500 l 1,9,-1
 600 500 l 1,10,-1
 600 0 l 1,11,-1
 400 0 l 1,12,-1
 400 200 l 1,13,-1
 200 200 l 1,14,-1
 200 0 l 1,15,-1
 0 0 l 1,0,-1
200 500 m 1,16,-1
 200 300 l 1,17,-1
 400 300 l 1,18,-1
 400 500 l 1,19,-1
 200 500 l 1,16,-1
200 800 m 1,20,-1
 200 900 l 1,21,-1
 300 900 l 1,22,-1
 300 1000 l 1,23,-1
 500 1000 l 1,24,-1
 500 900 l 1,25,-1
 400 900 l 1,26,-1
 400 800 l 1,27,-1
 200 800 l 1,20,-1
EndSplineSet
Validated: 1
EndChar

StartChar: Acircumflex
Encoding: 194 194 129
Width: 700
VWidth: 1400
Flags: W
LayerCount: 2
Fore
SplineSet
0 0 m 1,0,-1
 0 500 l 1,1,-1
 100 500 l 1,2,-1
 100 600 l 1,3,-1
 200 600 l 1,4,-1
 200 700 l 1,5,-1
 400 700 l 1,6,-1
 400 600 l 1,7,-1
 500 600 l 1,8,-1
 500 500 l 1,9,-1
 600 500 l 1,10,-1
 600 0 l 1,11,-1
 400 0 l 1,12,-1
 400 200 l 1,13,-1
 200 200 l 1,14,-1
 200 0 l 1,15,-1
 0 0 l 1,0,-1
100 800 m 1,16,-1
 100 900 l 1,17,-1
 200 900 l 1,18,-1
 200 1000 l 1,19,-1
 400 1000 l 1,20,-1
 400 900 l 1,21,-1
 500 900 l 1,22,-1
 500 800 l 1,23,-1
 400 800 l 1,24,-1
 400 900 l 1,25,-1
 300 900 l 1,26,-1
 300 800 l 1,27,-1
 100 800 l 1,16,-1
200 500 m 1,28,-1
 200 300 l 1,29,-1
 400 300 l 1,30,-1
 400 500 l 1,31,-1
 200 500 l 1,28,-1
EndSplineSet
Validated: 5
EndChar

StartChar: Atilde
Encoding: 195 195 130
Width: 700
VWidth: 1400
Flags: W
LayerCount: 2
Fore
SplineSet
0 0 m 1,0,-1
 0 500 l 1,1,-1
 100 500 l 1,2,-1
 100 600 l 1,3,-1
 200 600 l 1,4,-1
 200 700 l 1,5,-1
 400 700 l 1,6,-1
 400 600 l 1,7,-1
 500 600 l 1,8,-1
 500 500 l 1,9,-1
 600 500 l 1,10,-1
 600 0 l 1,11,-1
 400 0 l 1,12,-1
 400 200 l 1,13,-1
 200 200 l 1,14,-1
 200 0 l 1,15,-1
 0 0 l 1,0,-1
200 500 m 1,16,-1
 200 300 l 1,17,-1
 400 300 l 1,18,-1
 400 500 l 1,19,-1
 200 500 l 1,16,-1
300 900 m 5,20,-1
 200 900 l 5,21,-1
 200 800 l 5,22,-1
 0 800 l 5,23,-1
 0 900 l 5,24,-1
 100 900 l 5,25,-1
 100 1000 l 5,26,-1
 400 1000 l 5,27,-1
 400 900 l 5,28,-1
 500 900 l 5,29,-1
 500 800 l 5,30,-1
 300 800 l 5,31,-1
 300 900 l 5,20,-1
600 1000 m 5,32,-1
 600 900 l 5,33,-1
 500 900 l 5,34,-1
 500 1000 l 5,35,-1
 600 1000 l 5,32,-1
EndSplineSet
Validated: 5
EndChar

StartChar: Adieresis
Encoding: 196 196 131
Width: 700
VWidth: 1400
Flags: W
LayerCount: 2
Fore
SplineSet
0 0 m 1,0,-1
 0 500 l 1,1,-1
 100 500 l 1,2,-1
 100 600 l 1,3,-1
 200 600 l 1,4,-1
 200 700 l 1,5,-1
 400 700 l 1,6,-1
 400 600 l 1,7,-1
 500 600 l 1,8,-1
 500 500 l 1,9,-1
 600 500 l 1,10,-1
 600 0 l 1,11,-1
 400 0 l 1,12,-1
 400 200 l 1,13,-1
 200 200 l 1,14,-1
 200 0 l 1,15,-1
 0 0 l 1,0,-1
0 900 m 1,16,-1
 200 900 l 1,17,-1
 200 800 l 1,18,-1
 0 800 l 1,19,-1
 0 900 l 1,16,-1
200 500 m 1,20,-1
 200 300 l 1,21,-1
 400 300 l 1,22,-1
 400 500 l 1,23,-1
 200 500 l 1,20,-1
400 900 m 1,24,-1
 600 900 l 1,25,-1
 600 800 l 1,26,-1
 400 800 l 1,27,-1
 400 900 l 1,24,-1
EndSplineSet
Validated: 1
EndChar

StartChar: Aring
Encoding: 197 197 132
Width: 700
VWidth: 1400
Flags: W
LayerCount: 2
Fore
SplineSet
0 0 m 1,0,-1
 0 600 l 1,1,-1
 100 600 l 1,2,-1
 100 700 l 1,3,-1
 200 700 l 1,4,-1
 200 800 l 1,5,-1
 100 800 l 1,6,-1
 100 900 l 1,7,-1
 200 900 l 1,8,-1
 200 1000 l 1,9,-1
 400 1000 l 1,10,-1
 400 900 l 1,11,-1
 500 900 l 1,12,-1
 500 800 l 1,13,-1
 400 800 l 1,14,-1
 400 700 l 1,15,-1
 500 700 l 1,16,-1
 500 600 l 1,17,-1
 600 600 l 1,18,-1
 600 0 l 1,19,-1
 400 0 l 1,20,-1
 400 300 l 1,21,-1
 200 300 l 1,22,-1
 200 0 l 1,23,-1
 0 0 l 1,0,-1
200 600 m 1,24,-1
 200 400 l 1,25,-1
 400 400 l 1,26,-1
 400 600 l 1,27,-1
 200 600 l 1,24,-1
300 900 m 1,28,-1
 300 800 l 1,29,-1
 400 800 l 1,30,-1
 400 900 l 1,31,-1
 300 900 l 1,28,-1
EndSplineSet
Validated: 5
EndChar

StartChar: AE
Encoding: 198 198 133
Width: 700
VWidth: 1400
Flags: W
LayerCount: 2
Fore
SplineSet
0 0 m 1,0,-1
 0 600 l 1,1,-1
 100 600 l 1,2,-1
 100 700 l 1,3,-1
 200 700 l 1,4,-1
 200 800 l 1,5,-1
 600 800 l 1,6,-1
 600 700 l 1,7,-1
 500 700 l 1,8,-1
 500 400 l 1,9,-1
 600 400 l 1,10,-1
 600 300 l 1,11,-1
 500 300 l 1,12,-1
 500 100 l 1,13,-1
 600 100 l 1,14,-1
 600 0 l 1,15,-1
 300 0 l 1,16,-1
 300 300 l 1,17,-1
 200 300 l 1,18,-1
 200 0 l 1,19,-1
 0 0 l 1,0,-1
200 400 m 1,20,-1
 300 400 l 1,21,-1
 300 600 l 1,22,-1
 200 600 l 1,23,-1
 200 400 l 1,20,-1
EndSplineSet
Validated: 1
EndChar

StartChar: Ccedilla
Encoding: 199 199 134
Width: 700
VWidth: 1400
Flags: W
LayerCount: 2
Fore
SplineSet
0 200 m 1,0,-1
 0 600 l 1,1,-1
 100 600 l 1,2,-1
 100 700 l 1,3,-1
 200 700 l 1,4,-1
 200 800 l 1,5,-1
 600 800 l 1,6,-1
 600 700 l 1,7,-1
 300 700 l 1,8,-1
 300 600 l 1,9,-1
 200 600 l 1,10,-1
 200 200 l 1,11,-1
 300 200 l 1,12,-1
 300 100 l 1,13,-1
 600 100 l 1,14,-1
 600 0 l 1,15,-1
 500 0 l 1,16,-1
 500 -100 l 1,17,-1
 400 -100 l 1,18,-1
 400 -200 l 1,19,-1
 100 -200 l 1,20,-1
 100 -100 l 1,21,-1
 300 -100 l 1,22,-1
 300 0 l 1,23,-1
 200 0 l 1,24,-1
 200 100 l 1,25,-1
 100 100 l 1,26,-1
 100 200 l 1,27,-1
 0 200 l 1,0,-1
EndSplineSet
Validated: 1
EndChar

StartChar: Egrave
Encoding: 200 200 135
Width: 700
VWidth: 1400
Flags: W
LayerCount: 2
Fore
SplineSet
0 0 m 1,0,-1
 0 700 l 1,1,-1
 600 700 l 1,2,-1
 600 600 l 1,3,-1
 200 600 l 1,4,-1
 200 400 l 1,5,-1
 500 400 l 1,6,-1
 500 300 l 1,7,-1
 200 300 l 1,8,-1
 200 100 l 1,9,-1
 600 100 l 1,10,-1
 600 0 l 1,11,-1
 0 0 l 1,0,-1
100 900 m 1,12,-1
 100 1000 l 1,13,-1
 300 1000 l 1,14,-1
 300 900 l 1,15,-1
 400 900 l 1,16,-1
 400 800 l 1,17,-1
 200 800 l 1,18,-1
 200 900 l 1,19,-1
 100 900 l 1,12,-1
EndSplineSet
Validated: 1
EndChar

StartChar: Eacute
Encoding: 201 201 136
Width: 700
VWidth: 1400
Flags: W
LayerCount: 2
Fore
SplineSet
0 0 m 1,0,-1
 0 700 l 1,1,-1
 600 700 l 1,2,-1
 600 600 l 1,3,-1
 200 600 l 1,4,-1
 200 400 l 1,5,-1
 500 400 l 1,6,-1
 500 300 l 1,7,-1
 200 300 l 1,8,-1
 200 100 l 1,9,-1
 600 100 l 1,10,-1
 600 0 l 1,11,-1
 0 0 l 1,0,-1
200 800 m 1,12,-1
 200 900 l 1,13,-1
 300 900 l 1,14,-1
 300 1000 l 1,15,-1
 500 1000 l 1,16,-1
 500 900 l 1,17,-1
 400 900 l 1,18,-1
 400 800 l 1,19,-1
 200 800 l 1,12,-1
EndSplineSet
Validated: 1
EndChar

StartChar: Ecircumflex
Encoding: 202 202 137
Width: 700
VWidth: 1400
Flags: W
LayerCount: 2
Fore
SplineSet
100 800 m 1,0,-1
 100 900 l 1,1,-1
 200 900 l 1,2,-1
 200 1000 l 1,3,-1
 400 1000 l 1,4,-1
 400 900 l 1,5,-1
 500 900 l 1,6,-1
 500 800 l 1,7,-1
 400 800 l 1,8,-1
 400 900 l 1,9,-1
 300 900 l 1,10,-1
 300 800 l 1,11,-1
 100 800 l 1,0,-1
0 0 m 1,12,-1
 0 700 l 1,13,-1
 600 700 l 1,14,-1
 600 600 l 1,15,-1
 200 600 l 1,16,-1
 200 400 l 1,17,-1
 500 400 l 1,18,-1
 500 300 l 1,19,-1
 200 300 l 1,20,-1
 200 100 l 1,21,-1
 600 100 l 1,22,-1
 600 0 l 1,23,-1
 0 0 l 1,12,-1
EndSplineSet
Validated: 5
EndChar

StartChar: Edieresis
Encoding: 203 203 138
Width: 700
VWidth: 1400
Flags: W
LayerCount: 2
Fore
SplineSet
0 900 m 1,0,-1
 200 900 l 1,1,-1
 200 800 l 1,2,-1
 0 800 l 1,3,-1
 0 900 l 1,0,-1
400 900 m 1,4,-1
 600 900 l 1,5,-1
 600 800 l 1,6,-1
 400 800 l 1,7,-1
 400 900 l 1,4,-1
0 0 m 1,8,-1
 0 700 l 1,9,-1
 600 700 l 1,10,-1
 600 600 l 1,11,-1
 200 600 l 1,12,-1
 200 400 l 1,13,-1
 500 400 l 1,14,-1
 500 300 l 1,15,-1
 200 300 l 1,16,-1
 200 100 l 1,17,-1
 600 100 l 1,18,-1
 600 0 l 1,19,-1
 0 0 l 1,8,-1
EndSplineSet
Validated: 1
EndChar

StartChar: Igrave
Encoding: 204 204 139
Width: 700
VWidth: 1400
Flags: W
LayerCount: 2
Fore
SplineSet
0 0 m 1,0,-1
 0 100 l 1,1,-1
 200 100 l 1,2,-1
 200 600 l 1,3,-1
 0 600 l 1,4,-1
 0 700 l 1,5,-1
 600 700 l 1,6,-1
 600 600 l 1,7,-1
 400 600 l 1,8,-1
 400 100 l 1,9,-1
 600 100 l 1,10,-1
 600 0 l 1,11,-1
 0 0 l 1,0,-1
100 900 m 1,12,-1
 100 1000 l 1,13,-1
 300 1000 l 1,14,-1
 300 900 l 1,15,-1
 400 900 l 1,16,-1
 400 800 l 1,17,-1
 200 800 l 1,18,-1
 200 900 l 1,19,-1
 100 900 l 1,12,-1
EndSplineSet
Validated: 1
EndChar

StartChar: Iacute
Encoding: 205 205 140
Width: 700
VWidth: 1400
Flags: W
LayerCount: 2
Fore
SplineSet
0 0 m 1,0,-1
 0 100 l 1,1,-1
 200 100 l 1,2,-1
 200 600 l 1,3,-1
 0 600 l 1,4,-1
 0 700 l 1,5,-1
 600 700 l 1,6,-1
 600 600 l 1,7,-1
 400 600 l 1,8,-1
 400 100 l 1,9,-1
 600 100 l 1,10,-1
 600 0 l 1,11,-1
 0 0 l 1,0,-1
200 800 m 1,12,-1
 200 900 l 1,13,-1
 300 900 l 1,14,-1
 300 1000 l 1,15,-1
 500 1000 l 1,16,-1
 500 900 l 1,17,-1
 400 900 l 1,18,-1
 400 800 l 1,19,-1
 200 800 l 1,12,-1
EndSplineSet
Validated: 1
EndChar

StartChar: Icircumflex
Encoding: 206 206 141
Width: 700
VWidth: 1400
Flags: W
LayerCount: 2
Fore
SplineSet
100 800 m 1,0,-1
 100 900 l 1,1,-1
 200 900 l 1,2,-1
 200 1000 l 1,3,-1
 400 1000 l 1,4,-1
 400 900 l 1,5,-1
 500 900 l 1,6,-1
 500 800 l 1,7,-1
 400 800 l 1,8,-1
 400 900 l 1,9,-1
 300 900 l 1,10,-1
 300 800 l 1,11,-1
 100 800 l 1,0,-1
0 0 m 1,12,-1
 0 100 l 1,13,-1
 200 100 l 1,14,-1
 200 600 l 1,15,-1
 0 600 l 1,16,-1
 0 700 l 1,17,-1
 600 700 l 1,18,-1
 600 600 l 1,19,-1
 400 600 l 1,20,-1
 400 100 l 1,21,-1
 600 100 l 1,22,-1
 600 0 l 1,23,-1
 0 0 l 1,12,-1
EndSplineSet
Validated: 5
EndChar

StartChar: Idieresis
Encoding: 207 207 142
Width: 700
VWidth: 1400
Flags: W
LayerCount: 2
Fore
SplineSet
0 900 m 1,0,-1
 200 900 l 1,1,-1
 200 800 l 1,2,-1
 0 800 l 1,3,-1
 0 900 l 1,0,-1
400 900 m 1,4,-1
 600 900 l 1,5,-1
 600 800 l 1,6,-1
 400 800 l 1,7,-1
 400 900 l 1,4,-1
0 0 m 1,8,-1
 0 100 l 1,9,-1
 200 100 l 1,10,-1
 200 600 l 1,11,-1
 0 600 l 1,12,-1
 0 700 l 1,13,-1
 600 700 l 1,14,-1
 600 600 l 1,15,-1
 400 600 l 1,16,-1
 400 100 l 1,17,-1
 600 100 l 1,18,-1
 600 0 l 1,19,-1
 0 0 l 1,8,-1
EndSplineSet
Validated: 1
EndChar

StartChar: Eth
Encoding: 208 208 143
Width: 700
VWidth: 1400
Flags: W
LayerCount: 2
Fore
SplineSet
0 0 m 1,0,-1
 0 100 l 1,1,-1
 100 100 l 1,2,-1
 100 400 l 1,3,-1
 0 400 l 1,4,-1
 0 500 l 1,5,-1
 100 500 l 1,6,-1
 100 700 l 1,7,-1
 0 700 l 1,8,-1
 0 800 l 1,9,-1
 500 800 l 1,10,-1
 500 700 l 1,11,-1
 600 700 l 1,12,-1
 600 200 l 1,13,-1
 500 200 l 1,14,-1
 500 100 l 1,15,-1
 400 100 l 1,16,-1
 400 700 l 1,17,-1
 300 700 l 1,18,-1
 300 100 l 1,19,-1
 400 100 l 1,20,-1
 400 0 l 1,21,-1
 0 0 l 1,0,-1
EndSplineSet
Validated: 5
EndChar

StartChar: Ntilde
Encoding: 209 209 144
Width: 700
VWidth: 1400
Flags: W
LayerCount: 2
Fore
SplineSet
300 900 m 1,0,-1
 200 900 l 1,1,-1
 200 800 l 1,2,-1
 0 800 l 1,3,-1
 0 900 l 1,4,-1
 100 900 l 1,5,-1
 100 1000 l 1,6,-1
 400 1000 l 1,7,-1
 400 900 l 1,8,-1
 500 900 l 1,9,-1
 500 800 l 1,10,-1
 300 800 l 1,11,-1
 300 900 l 1,0,-1
600 1000 m 1,12,-1
 600 900 l 1,13,-1
 500 900 l 1,14,-1
 500 1000 l 1,15,-1
 600 1000 l 1,12,-1
0 0 m 1,16,-1
 0 700 l 1,17,-1
 200 700 l 1,18,-1
 200 600 l 1,19,-1
 300 600 l 1,20,-1
 300 500 l 1,21,-1
 400 500 l 1,22,-1
 400 700 l 1,23,-1
 600 700 l 1,24,-1
 600 0 l 1,25,-1
 400 0 l 1,26,-1
 400 300 l 1,27,-1
 300 300 l 1,28,-1
 300 400 l 1,29,-1
 200 400 l 1,30,-1
 200 0 l 1,31,-1
 0 0 l 1,16,-1
EndSplineSet
Validated: 5
EndChar

StartChar: Ograve
Encoding: 210 210 145
Width: 700
VWidth: 1400
Flags: W
LayerCount: 2
Fore
SplineSet
0 100 m 1,0,-1
 0 600 l 1,1,-1
 100 600 l 1,2,-1
 100 700 l 1,3,-1
 500 700 l 1,4,-1
 500 600 l 1,5,-1
 600 600 l 1,6,-1
 600 100 l 1,7,-1
 500 100 l 1,8,-1
 500 0 l 1,9,-1
 100 0 l 1,10,-1
 100 100 l 1,11,-1
 0 100 l 1,0,-1
100 900 m 1,12,-1
 100 1000 l 1,13,-1
 300 1000 l 1,14,-1
 300 900 l 1,15,-1
 400 900 l 1,16,-1
 400 800 l 1,17,-1
 200 800 l 1,18,-1
 200 900 l 1,19,-1
 100 900 l 1,12,-1
200 100 m 1,20,-1
 400 100 l 1,21,-1
 400 600 l 1,22,-1
 200 600 l 1,23,-1
 200 100 l 1,20,-1
EndSplineSet
Validated: 1
EndChar

StartChar: Oacute
Encoding: 211 211 146
Width: 700
VWidth: 1400
Flags: W
LayerCount: 2
Fore
SplineSet
0 100 m 1,0,-1
 0 600 l 1,1,-1
 100 600 l 1,2,-1
 100 700 l 1,3,-1
 500 700 l 1,4,-1
 500 600 l 1,5,-1
 600 600 l 1,6,-1
 600 100 l 1,7,-1
 500 100 l 1,8,-1
 500 0 l 1,9,-1
 100 0 l 1,10,-1
 100 100 l 1,11,-1
 0 100 l 1,0,-1
200 100 m 1,12,-1
 400 100 l 1,13,-1
 400 600 l 1,14,-1
 200 600 l 1,15,-1
 200 100 l 1,12,-1
200 800 m 1,16,-1
 200 900 l 1,17,-1
 300 900 l 1,18,-1
 300 1000 l 1,19,-1
 500 1000 l 1,20,-1
 500 900 l 1,21,-1
 400 900 l 1,22,-1
 400 800 l 1,23,-1
 200 800 l 1,16,-1
EndSplineSet
Validated: 1
EndChar

StartChar: Ocircumflex
Encoding: 212 212 147
Width: 700
VWidth: 1400
Flags: W
LayerCount: 2
Fore
SplineSet
100 800 m 1,0,-1
 100 900 l 1,1,-1
 200 900 l 1,2,-1
 200 1000 l 1,3,-1
 400 1000 l 1,4,-1
 400 900 l 1,5,-1
 500 900 l 1,6,-1
 500 800 l 1,7,-1
 400 800 l 1,8,-1
 400 900 l 1,9,-1
 300 900 l 1,10,-1
 300 800 l 1,11,-1
 100 800 l 1,0,-1
0 100 m 1,12,-1
 0 600 l 1,13,-1
 100 600 l 1,14,-1
 100 700 l 1,15,-1
 500 700 l 1,16,-1
 500 600 l 1,17,-1
 600 600 l 1,18,-1
 600 100 l 1,19,-1
 500 100 l 1,20,-1
 500 0 l 1,21,-1
 100 0 l 1,22,-1
 100 100 l 1,23,-1
 0 100 l 1,12,-1
200 100 m 1,24,-1
 400 100 l 1,25,-1
 400 600 l 1,26,-1
 200 600 l 1,27,-1
 200 100 l 1,24,-1
EndSplineSet
Validated: 5
EndChar

StartChar: Otilde
Encoding: 213 213 148
Width: 700
VWidth: 1400
Flags: W
LayerCount: 2
Fore
SplineSet
300 900 m 1,0,-1
 200 900 l 1,1,-1
 200 800 l 1,2,-1
 0 800 l 1,3,-1
 0 900 l 1,4,-1
 100 900 l 1,5,-1
 100 1000 l 1,6,-1
 400 1000 l 1,7,-1
 400 900 l 1,8,-1
 500 900 l 1,9,-1
 500 800 l 1,10,-1
 300 800 l 1,11,-1
 300 900 l 1,0,-1
600 1000 m 1,12,-1
 600 900 l 1,13,-1
 500 900 l 1,14,-1
 500 1000 l 1,15,-1
 600 1000 l 1,12,-1
0 100 m 1,16,-1
 0 600 l 1,17,-1
 100 600 l 1,18,-1
 100 700 l 1,19,-1
 500 700 l 1,20,-1
 500 600 l 1,21,-1
 600 600 l 1,22,-1
 600 100 l 1,23,-1
 500 100 l 1,24,-1
 500 0 l 1,25,-1
 100 0 l 1,26,-1
 100 100 l 1,27,-1
 0 100 l 1,16,-1
200 100 m 1,28,-1
 400 100 l 1,29,-1
 400 600 l 1,30,-1
 200 600 l 1,31,-1
 200 100 l 1,28,-1
EndSplineSet
Validated: 5
EndChar

StartChar: Odieresis
Encoding: 214 214 149
Width: 700
VWidth: 1400
Flags: W
LayerCount: 2
Fore
SplineSet
0 900 m 5,0,-1
 200 900 l 5,1,-1
 200 800 l 5,2,-1
 0 800 l 5,3,-1
 0 900 l 5,0,-1
400 900 m 5,4,-1
 600 900 l 5,5,-1
 600 800 l 5,6,-1
 400 800 l 5,7,-1
 400 900 l 5,4,-1
0 100 m 1,8,-1
 0 600 l 1,9,-1
 100 600 l 1,10,-1
 100 700 l 1,11,-1
 500 700 l 1,12,-1
 500 600 l 1,13,-1
 600 600 l 1,14,-1
 600 100 l 1,15,-1
 500 100 l 1,16,-1
 500 0 l 1,17,-1
 100 0 l 1,18,-1
 100 100 l 1,19,-1
 0 100 l 1,8,-1
200 100 m 1,20,-1
 400 100 l 1,21,-1
 400 600 l 1,22,-1
 200 600 l 1,23,-1
 200 100 l 1,20,-1
EndSplineSet
Validated: 1
EndChar

StartChar: multiply
Encoding: 215 215 150
Width: 700
VWidth: 1400
Flags: W
LayerCount: 2
Fore
SplineSet
0 100 m 1,0,-1
 0 200 l 1,1,-1
 100 200 l 1,2,-1
 100 300 l 1,3,-1
 200 300 l 1,4,-1
 200 400 l 1,5,-1
 100 400 l 1,6,-1
 100 500 l 1,7,-1
 0 500 l 1,8,-1
 0 600 l 1,9,-1
 200 600 l 1,10,-1
 200 500 l 1,11,-1
 400 500 l 1,12,-1
 400 600 l 1,13,-1
 600 600 l 1,14,-1
 600 500 l 1,15,-1
 500 500 l 1,16,-1
 500 400 l 1,17,-1
 400 400 l 1,18,-1
 400 300 l 1,19,-1
 500 300 l 1,20,-1
 500 200 l 1,21,-1
 600 200 l 1,22,-1
 600 100 l 1,23,-1
 400 100 l 1,24,-1
 400 200 l 1,25,-1
 200 200 l 1,26,-1
 200 100 l 1,27,-1
 0 100 l 1,0,-1
EndSplineSet
Validated: 1
EndChar

StartChar: Oslash
Encoding: 216 216 151
Width: 700
VWidth: 1400
Flags: W
LayerCount: 2
Fore
SplineSet
0 100 m 1,0,-1
 0 700 l 1,1,-1
 100 700 l 1,2,-1
 100 800 l 1,3,-1
 400 800 l 1,4,-1
 400 900 l 1,5,-1
 500 900 l 1,6,-1
 500 700 l 1,7,-1
 600 700 l 1,8,-1
 600 100 l 1,9,-1
 500 100 l 1,10,-1
 500 0 l 1,11,-1
 200 0 l 1,12,-1
 200 -100 l 1,13,-1
 100 -100 l 1,14,-1
 100 100 l 1,15,-1
 0 100 l 1,0,-1
200 200 m 1,16,-1
 200 100 l 1,17,-1
 400 100 l 1,18,-1
 400 400 l 1,19,-1
 300 400 l 1,20,-1
 300 600 l 1,21,-1
 400 600 l 1,22,-1
 400 700 l 1,23,-1
 200 700 l 1,24,-1
 200 400 l 1,25,-1
 300 400 l 1,26,-1
 300 200 l 1,27,-1
 200 200 l 1,16,-1
EndSplineSet
Validated: 5
EndChar

StartChar: Ugrave
Encoding: 217 217 152
Width: 700
VWidth: 1400
Flags: W
LayerCount: 2
Fore
SplineSet
0 100 m 1,0,-1
 0 700 l 1,1,-1
 200 700 l 1,2,-1
 200 100 l 1,3,-1
 400 100 l 1,4,-1
 400 700 l 1,5,-1
 600 700 l 1,6,-1
 600 100 l 1,7,-1
 500 100 l 1,8,-1
 500 0 l 1,9,-1
 100 0 l 1,10,-1
 100 100 l 1,11,-1
 0 100 l 1,0,-1
100 900 m 1,12,-1
 100 1000 l 1,13,-1
 300 1000 l 1,14,-1
 300 900 l 1,15,-1
 400 900 l 1,16,-1
 400 800 l 1,17,-1
 200 800 l 1,18,-1
 200 900 l 1,19,-1
 100 900 l 1,12,-1
EndSplineSet
Validated: 1
EndChar

StartChar: Uacute
Encoding: 218 218 153
Width: 700
VWidth: 1400
Flags: W
LayerCount: 2
Fore
SplineSet
0 100 m 1,0,-1
 0 700 l 1,1,-1
 200 700 l 1,2,-1
 200 100 l 1,3,-1
 400 100 l 1,4,-1
 400 700 l 1,5,-1
 600 700 l 1,6,-1
 600 100 l 1,7,-1
 500 100 l 1,8,-1
 500 0 l 1,9,-1
 100 0 l 1,10,-1
 100 100 l 1,11,-1
 0 100 l 1,0,-1
200 800 m 1,12,-1
 200 900 l 1,13,-1
 300 900 l 1,14,-1
 300 1000 l 1,15,-1
 500 1000 l 1,16,-1
 500 900 l 1,17,-1
 400 900 l 1,18,-1
 400 800 l 1,19,-1
 200 800 l 1,12,-1
EndSplineSet
Validated: 1
EndChar

StartChar: Ucircumflex
Encoding: 219 219 154
Width: 700
VWidth: 1400
Flags: W
LayerCount: 2
Fore
SplineSet
100 800 m 1,0,-1
 100 900 l 1,1,-1
 200 900 l 1,2,-1
 200 1000 l 1,3,-1
 400 1000 l 1,4,-1
 400 900 l 1,5,-1
 500 900 l 1,6,-1
 500 800 l 1,7,-1
 400 800 l 1,8,-1
 400 900 l 1,9,-1
 300 900 l 1,10,-1
 300 800 l 1,11,-1
 100 800 l 1,0,-1
0 100 m 1,12,-1
 0 700 l 1,13,-1
 200 700 l 1,14,-1
 200 100 l 1,15,-1
 400 100 l 1,16,-1
 400 700 l 1,17,-1
 600 700 l 1,18,-1
 600 100 l 1,19,-1
 500 100 l 1,20,-1
 500 0 l 1,21,-1
 100 0 l 1,22,-1
 100 100 l 1,23,-1
 0 100 l 1,12,-1
EndSplineSet
Validated: 5
EndChar

StartChar: Udieresis
Encoding: 220 220 155
Width: 700
VWidth: 1400
Flags: W
LayerCount: 2
Fore
SplineSet
0 900 m 1,0,-1
 200 900 l 1,1,-1
 200 800 l 1,2,-1
 0 800 l 1,3,-1
 0 900 l 1,0,-1
400 900 m 1,4,-1
 600 900 l 1,5,-1
 600 800 l 1,6,-1
 400 800 l 1,7,-1
 400 900 l 1,4,-1
0 100 m 1,8,-1
 0 700 l 1,9,-1
 200 700 l 1,10,-1
 200 100 l 1,11,-1
 400 100 l 1,12,-1
 400 700 l 1,13,-1
 600 700 l 1,14,-1
 600 100 l 1,15,-1
 500 100 l 1,16,-1
 500 0 l 1,17,-1
 100 0 l 1,18,-1
 100 100 l 1,19,-1
 0 100 l 1,8,-1
EndSplineSet
Validated: 1
EndChar

StartChar: Yacute
Encoding: 221 221 156
Width: 700
VWidth: 1400
Flags: W
LayerCount: 2
Fore
SplineSet
0 400 m 1,0,-1
 0 700 l 1,1,-1
 200 700 l 1,2,-1
 200 400 l 1,3,-1
 400 400 l 1,4,-1
 400 700 l 1,5,-1
 600 700 l 1,6,-1
 600 400 l 1,7,-1
 500 400 l 1,8,-1
 500 300 l 1,9,-1
 400 300 l 1,10,-1
 400 0 l 1,11,-1
 200 0 l 1,12,-1
 200 300 l 1,13,-1
 100 300 l 1,14,-1
 100 400 l 1,15,-1
 0 400 l 1,0,-1
200 800 m 1,16,-1
 200 900 l 1,17,-1
 300 900 l 1,18,-1
 300 1000 l 1,19,-1
 500 1000 l 1,20,-1
 500 900 l 1,21,-1
 400 900 l 1,22,-1
 400 800 l 1,23,-1
 200 800 l 1,16,-1
EndSplineSet
Validated: 1
EndChar

StartChar: Thorn
Encoding: 222 222 157
Width: 700
VWidth: 1400
Flags: W
LayerCount: 2
Fore
SplineSet
0 0 m 1,0,-1
 0 800 l 1,1,-1
 200 800 l 1,2,-1
 200 700 l 1,3,-1
 500 700 l 1,4,-1
 500 600 l 1,5,-1
 600 600 l 1,6,-1
 600 200 l 1,7,-1
 500 200 l 1,8,-1
 500 100 l 1,9,-1
 200 100 l 1,10,-1
 200 0 l 1,11,-1
 0 0 l 1,0,-1
200 200 m 1,12,-1
 400 200 l 1,13,-1
 400 600 l 1,14,-1
 200 600 l 1,15,-1
 200 200 l 1,12,-1
EndSplineSet
Validated: 1
EndChar

StartChar: germandbls
Encoding: 223 223 158
Width: 700
VWidth: 1400
Flags: W
LayerCount: 2
Fore
SplineSet
0 0 m 1,0,-1
 0 700 l 1,1,-1
 100 700 l 1,2,-1
 100 800 l 1,3,-1
 500 800 l 1,4,-1
 500 700 l 1,5,-1
 600 700 l 1,6,-1
 600 500 l 1,7,-1
 500 500 l 1,8,-1
 500 400 l 1,9,-1
 600 400 l 1,10,-1
 600 100 l 1,11,-1
 500 100 l 1,12,-1
 500 0 l 1,13,-1
 300 0 l 1,14,-1
 300 100 l 1,15,-1
 400 100 l 1,16,-1
 400 400 l 1,17,-1
 300 400 l 1,18,-1
 300 500 l 1,19,-1
 400 500 l 1,20,-1
 400 700 l 1,21,-1
 200 700 l 1,22,-1
 200 0 l 1,23,-1
 0 0 l 1,0,-1
EndSplineSet
Validated: 1
EndChar

StartChar: agrave
Encoding: 224 224 159
Width: 700
VWidth: 1400
Flags: W
LayerCount: 2
Fore
SplineSet
0 100 m 1,0,-1
 0 300 l 1,1,-1
 100 300 l 1,2,-1
 100 400 l 1,3,-1
 400 400 l 1,4,-1
 400 500 l 1,5,-1
 100 500 l 1,6,-1
 100 600 l 1,7,-1
 500 600 l 1,8,-1
 500 500 l 1,9,-1
 600 500 l 1,10,-1
 600 0 l 1,11,-1
 100 0 l 1,12,-1
 100 100 l 1,13,-1
 0 100 l 1,0,-1
200 100 m 1,14,-1
 400 100 l 1,15,-1
 400 300 l 1,16,-1
 200 300 l 1,17,-1
 200 100 l 1,14,-1
200 700 m 1,18,-1
 200 800 l 1,19,-1
 100 800 l 1,20,-1
 100 900 l 1,21,-1
 300 900 l 1,22,-1
 300 800 l 1,23,-1
 400 800 l 1,24,-1
 400 700 l 1,25,-1
 200 700 l 1,18,-1
EndSplineSet
Validated: 1
EndChar

StartChar: aacute
Encoding: 225 225 160
Width: 700
VWidth: 1400
Flags: W
LayerCount: 2
Fore
SplineSet
0 100 m 1,0,-1
 0 300 l 1,1,-1
 100 300 l 1,2,-1
 100 400 l 1,3,-1
 400 400 l 1,4,-1
 400 500 l 1,5,-1
 100 500 l 1,6,-1
 100 600 l 1,7,-1
 500 600 l 1,8,-1
 500 500 l 1,9,-1
 600 500 l 1,10,-1
 600 0 l 1,11,-1
 100 0 l 1,12,-1
 100 100 l 1,13,-1
 0 100 l 1,0,-1
200 100 m 1,14,-1
 400 100 l 1,15,-1
 400 300 l 1,16,-1
 200 300 l 1,17,-1
 200 100 l 1,14,-1
200 700 m 1,18,-1
 200 800 l 1,19,-1
 300 800 l 1,20,-1
 300 900 l 1,21,-1
 500 900 l 1,22,-1
 500 800 l 1,23,-1
 400 800 l 1,24,-1
 400 700 l 1,25,-1
 200 700 l 1,18,-1
EndSplineSet
Validated: 1
EndChar

StartChar: acircumflex
Encoding: 226 226 161
Width: 700
VWidth: 1400
Flags: W
LayerCount: 2
Fore
SplineSet
100 700 m 1,0,-1
 100 800 l 1,1,-1
 200 800 l 1,2,-1
 200 900 l 1,3,-1
 400 900 l 1,4,-1
 400 800 l 1,5,-1
 500 800 l 1,6,-1
 500 700 l 1,7,-1
 400 700 l 1,8,-1
 400 800 l 1,9,-1
 300 800 l 1,10,-1
 300 700 l 1,11,-1
 100 700 l 1,0,-1
0 100 m 1,12,-1
 0 300 l 1,13,-1
 100 300 l 1,14,-1
 100 400 l 1,15,-1
 400 400 l 1,16,-1
 400 500 l 1,17,-1
 100 500 l 1,18,-1
 100 600 l 1,19,-1
 500 600 l 1,20,-1
 500 500 l 1,21,-1
 600 500 l 1,22,-1
 600 0 l 1,23,-1
 100 0 l 1,24,-1
 100 100 l 1,25,-1
 0 100 l 1,12,-1
200 100 m 1,26,-1
 400 100 l 1,27,-1
 400 300 l 1,28,-1
 200 300 l 1,29,-1
 200 100 l 1,26,-1
EndSplineSet
Validated: 5
EndChar

StartChar: atilde
Encoding: 227 227 162
Width: 700
VWidth: 1400
Flags: W
LayerCount: 2
Fore
SplineSet
300 800 m 1,0,-1
 200 800 l 1,1,-1
 200 700 l 1,2,-1
 0 700 l 1,3,-1
 0 800 l 1,4,-1
 100 800 l 1,5,-1
 100 900 l 1,6,-1
 400 900 l 1,7,-1
 400 800 l 1,8,-1
 500 800 l 1,9,-1
 500 700 l 1,10,-1
 300 700 l 1,11,-1
 300 800 l 1,0,-1
600 900 m 1,12,-1
 600 800 l 1,13,-1
 500 800 l 1,14,-1
 500 900 l 1,15,-1
 600 900 l 1,12,-1
0 100 m 1,16,-1
 0 300 l 1,17,-1
 100 300 l 1,18,-1
 100 400 l 1,19,-1
 400 400 l 1,20,-1
 400 500 l 1,21,-1
 100 500 l 1,22,-1
 100 600 l 1,23,-1
 500 600 l 1,24,-1
 500 500 l 1,25,-1
 600 500 l 1,26,-1
 600 0 l 1,27,-1
 100 0 l 1,28,-1
 100 100 l 1,29,-1
 0 100 l 1,16,-1
200 100 m 1,30,-1
 400 100 l 1,31,-1
 400 300 l 1,32,-1
 200 300 l 1,33,-1
 200 100 l 1,30,-1
EndSplineSet
Validated: 5
EndChar

StartChar: adieresis
Encoding: 228 228 163
Width: 700
VWidth: 1400
Flags: W
LayerCount: 2
Fore
SplineSet
0 100 m 1,0,-1
 0 300 l 1,1,-1
 100 300 l 1,2,-1
 100 400 l 1,3,-1
 400 400 l 1,4,-1
 400 500 l 1,5,-1
 100 500 l 1,6,-1
 100 600 l 1,7,-1
 500 600 l 1,8,-1
 500 500 l 1,9,-1
 600 500 l 1,10,-1
 600 0 l 1,11,-1
 100 0 l 1,12,-1
 100 100 l 1,13,-1
 0 100 l 1,0,-1
200 100 m 1,14,-1
 400 100 l 1,15,-1
 400 300 l 1,16,-1
 200 300 l 1,17,-1
 200 100 l 1,14,-1
400 700 m 5,18,-1
 400 800 l 5,19,-1
 600 800 l 5,20,-1
 600 700 l 5,21,-1
 400 700 l 5,18,-1
0 700 m 5,22,-1
 0 800 l 5,23,-1
 200 800 l 5,24,-1
 200 700 l 5,25,-1
 0 700 l 5,22,-1
EndSplineSet
Validated: 1
EndChar

StartChar: aring
Encoding: 229 229 164
Width: 700
VWidth: 1400
Flags: W
LayerCount: 2
Fore
SplineSet
0 100 m 1,0,-1
 0 300 l 1,1,-1
 100 300 l 1,2,-1
 100 400 l 1,3,-1
 400 400 l 1,4,-1
 400 500 l 1,5,-1
 100 500 l 1,6,-1
 100 600 l 1,7,-1
 500 600 l 1,8,-1
 500 500 l 1,9,-1
 600 500 l 1,10,-1
 600 0 l 1,11,-1
 100 0 l 1,12,-1
 100 100 l 1,13,-1
 0 100 l 1,0,-1
200 100 m 1,14,-1
 400 100 l 1,15,-1
 400 300 l 1,16,-1
 200 300 l 1,17,-1
 200 100 l 1,14,-1
200 700 m 1,18,-1
 200 800 l 1,19,-1
 100 800 l 1,20,-1
 100 900 l 1,21,-1
 200 900 l 1,22,-1
 200 1000 l 1,23,-1
 500 1000 l 1,24,-1
 500 900 l 1,25,-1
 600 900 l 1,26,-1
 600 800 l 1,27,-1
 500 800 l 1,28,-1
 500 700 l 1,29,-1
 200 700 l 1,18,-1
400 900 m 1,30,-1
 300 900 l 1,31,-1
 300 800 l 1,32,-1
 400 800 l 1,33,-1
 400 900 l 1,30,-1
EndSplineSet
Validated: 1
EndChar

StartChar: ae
Encoding: 230 230 165
Width: 700
VWidth: 1400
Flags: W
LayerCount: 2
Fore
SplineSet
0 100 m 1,0,-1
 0 300 l 1,1,-1
 100 300 l 1,2,-1
 100 100 l 1,3,-1
 0 100 l 1,0,-1
200 100 m 1,4,-1
 200 0 l 1,5,-1
 100 0 l 1,6,-1
 100 100 l 1,7,-1
 200 100 l 1,4,-1
200 500 m 1,8,-1
 100 500 l 1,9,-1
 100 600 l 1,10,-1
 300 600 l 1,11,-1
 300 500 l 1,12,-1
 400 500 l 1,13,-1
 400 400 l 1,14,-1
 500 400 l 1,15,-1
 500 500 l 1,16,-1
 600 500 l 1,17,-1
 600 300 l 1,18,-1
 400 300 l 1,19,-1
 400 100 l 1,20,-1
 600 100 l 1,21,-1
 600 0 l 1,22,-1
 300 0 l 1,23,-1
 300 100 l 1,24,-1
 200 100 l 1,25,-1
 200 300 l 1,26,-1
 100 300 l 1,27,-1
 100 400 l 1,28,-1
 200 400 l 1,29,-1
 200 500 l 1,8,-1
400 500 m 1,30,-1
 400 600 l 1,31,-1
 500 600 l 1,32,-1
 500 500 l 1,33,-1
 400 500 l 1,30,-1
EndSplineSet
Validated: 5
EndChar

StartChar: ccedilla
Encoding: 231 231 166
Width: 700
VWidth: 1400
Flags: W
LayerCount: 2
Fore
SplineSet
0 100 m 1,0,-1
 0 500 l 1,1,-1
 100 500 l 1,2,-1
 100 600 l 1,3,-1
 600 600 l 1,4,-1
 600 500 l 1,5,-1
 200 500 l 1,6,-1
 200 100 l 1,7,-1
 600 100 l 1,8,-1
 600 0 l 1,9,-1
 500 0 l 1,10,-1
 500 -100 l 1,11,-1
 400 -100 l 1,12,-1
 400 -200 l 1,13,-1
 100 -200 l 1,14,-1
 100 -100 l 1,15,-1
 300 -100 l 1,16,-1
 300 0 l 1,17,-1
 100 0 l 1,18,-1
 100 100 l 1,19,-1
 0 100 l 1,0,-1
EndSplineSet
Validated: 1
EndChar

StartChar: egrave
Encoding: 232 232 167
Width: 700
VWidth: 1400
Flags: W
LayerCount: 2
Fore
SplineSet
0 100 m 1,0,-1
 0 500 l 1,1,-1
 100 500 l 1,2,-1
 100 600 l 1,3,-1
 500 600 l 1,4,-1
 500 500 l 1,5,-1
 600 500 l 1,6,-1
 600 300 l 1,7,-1
 200 300 l 1,8,-1
 200 100 l 1,9,-1
 600 100 l 1,10,-1
 600 0 l 1,11,-1
 100 0 l 1,12,-1
 100 100 l 1,13,-1
 0 100 l 1,0,-1
200 500 m 1,14,-1
 200 400 l 1,15,-1
 400 400 l 1,16,-1
 400 500 l 1,17,-1
 200 500 l 1,14,-1
200 700 m 1,18,-1
 200 800 l 1,19,-1
 100 800 l 1,20,-1
 100 900 l 1,21,-1
 300 900 l 1,22,-1
 300 800 l 1,23,-1
 400 800 l 1,24,-1
 400 700 l 1,25,-1
 200 700 l 1,18,-1
EndSplineSet
Validated: 1
EndChar

StartChar: eacute
Encoding: 233 233 168
Width: 700
VWidth: 1400
Flags: W
LayerCount: 2
Fore
SplineSet
0 100 m 1,0,-1
 0 500 l 1,1,-1
 100 500 l 1,2,-1
 100 600 l 1,3,-1
 500 600 l 1,4,-1
 500 500 l 1,5,-1
 600 500 l 1,6,-1
 600 300 l 1,7,-1
 200 300 l 1,8,-1
 200 100 l 1,9,-1
 600 100 l 1,10,-1
 600 0 l 1,11,-1
 100 0 l 1,12,-1
 100 100 l 1,13,-1
 0 100 l 1,0,-1
200 500 m 1,14,-1
 200 400 l 1,15,-1
 400 400 l 1,16,-1
 400 500 l 1,17,-1
 200 500 l 1,14,-1
200 700 m 1,18,-1
 200 800 l 1,19,-1
 300 800 l 1,20,-1
 300 900 l 1,21,-1
 500 900 l 1,22,-1
 500 800 l 1,23,-1
 400 800 l 1,24,-1
 400 700 l 1,25,-1
 200 700 l 1,18,-1
EndSplineSet
Validated: 1
EndChar

StartChar: ecircumflex
Encoding: 234 234 169
Width: 700
VWidth: 1400
Flags: W
LayerCount: 2
Fore
SplineSet
100 700 m 1,0,-1
 100 800 l 1,1,-1
 200 800 l 1,2,-1
 200 900 l 1,3,-1
 400 900 l 1,4,-1
 400 800 l 1,5,-1
 500 800 l 1,6,-1
 500 700 l 1,7,-1
 400 700 l 1,8,-1
 400 800 l 1,9,-1
 300 800 l 1,10,-1
 300 700 l 1,11,-1
 100 700 l 1,0,-1
0 100 m 1,12,-1
 0 500 l 1,13,-1
 100 500 l 1,14,-1
 100 600 l 1,15,-1
 500 600 l 1,16,-1
 500 500 l 1,17,-1
 600 500 l 1,18,-1
 600 300 l 1,19,-1
 200 300 l 1,20,-1
 200 100 l 1,21,-1
 600 100 l 1,22,-1
 600 0 l 1,23,-1
 100 0 l 1,24,-1
 100 100 l 1,25,-1
 0 100 l 1,12,-1
200 500 m 1,26,-1
 200 400 l 1,27,-1
 400 400 l 1,28,-1
 400 500 l 1,29,-1
 200 500 l 1,26,-1
EndSplineSet
Validated: 5
EndChar

StartChar: edieresis
Encoding: 235 235 170
Width: 700
VWidth: 1400
Flags: W
LayerCount: 2
Fore
SplineSet
400 700 m 1,0,-1
 400 800 l 1,1,-1
 600 800 l 1,2,-1
 600 700 l 1,3,-1
 400 700 l 1,0,-1
0 700 m 1,4,-1
 0 800 l 1,5,-1
 200 800 l 1,6,-1
 200 700 l 1,7,-1
 0 700 l 1,4,-1
0 100 m 1,8,-1
 0 500 l 1,9,-1
 100 500 l 1,10,-1
 100 600 l 1,11,-1
 500 600 l 1,12,-1
 500 500 l 1,13,-1
 600 500 l 1,14,-1
 600 300 l 1,15,-1
 200 300 l 1,16,-1
 200 100 l 1,17,-1
 600 100 l 1,18,-1
 600 0 l 1,19,-1
 100 0 l 1,20,-1
 100 100 l 1,21,-1
 0 100 l 1,8,-1
200 500 m 1,22,-1
 200 400 l 1,23,-1
 400 400 l 1,24,-1
 400 500 l 1,25,-1
 200 500 l 1,22,-1
EndSplineSet
Validated: 1
EndChar

StartChar: igrave
Encoding: 236 236 171
Width: 700
VWidth: 1400
Flags: W
LayerCount: 2
Fore
SplineSet
0 0 m 1,0,-1
 0 100 l 1,1,-1
 200 100 l 1,2,-1
 200 500 l 1,3,-1
 0 500 l 1,4,-1
 0 600 l 1,5,-1
 400 600 l 1,6,-1
 400 100 l 1,7,-1
 600 100 l 1,8,-1
 600 0 l 1,9,-1
 0 0 l 1,0,-1
100 800 m 1,10,-1
 100 900 l 1,11,-1
 300 900 l 1,12,-1
 300 800 l 1,13,-1
 400 800 l 1,14,-1
 400 700 l 1,15,-1
 200 700 l 1,16,-1
 200 800 l 1,17,-1
 100 800 l 1,10,-1
EndSplineSet
Validated: 1
EndChar

StartChar: iacute
Encoding: 237 237 172
Width: 700
VWidth: 1400
Flags: W
LayerCount: 2
Fore
SplineSet
0 0 m 1,0,-1
 0 100 l 1,1,-1
 200 100 l 1,2,-1
 200 500 l 1,3,-1
 0 500 l 1,4,-1
 0 600 l 1,5,-1
 400 600 l 1,6,-1
 400 100 l 1,7,-1
 600 100 l 1,8,-1
 600 0 l 1,9,-1
 0 0 l 1,0,-1
200 700 m 1,10,-1
 200 800 l 1,11,-1
 300 800 l 1,12,-1
 300 900 l 1,13,-1
 500 900 l 1,14,-1
 500 800 l 1,15,-1
 400 800 l 1,16,-1
 400 700 l 1,17,-1
 200 700 l 1,10,-1
EndSplineSet
Validated: 1
EndChar

StartChar: icircumflex
Encoding: 238 238 173
Width: 700
VWidth: 1400
Flags: W
LayerCount: 2
Fore
SplineSet
100 700 m 1,0,-1
 100 800 l 1,1,-1
 200 800 l 1,2,-1
 200 900 l 1,3,-1
 400 900 l 1,4,-1
 400 800 l 1,5,-1
 500 800 l 1,6,-1
 500 700 l 1,7,-1
 400 700 l 1,8,-1
 400 800 l 1,9,-1
 300 800 l 1,10,-1
 300 700 l 1,11,-1
 100 700 l 1,0,-1
0 0 m 1,12,-1
 0 100 l 1,13,-1
 200 100 l 1,14,-1
 200 500 l 1,15,-1
 0 500 l 1,16,-1
 0 600 l 1,17,-1
 400 600 l 1,18,-1
 400 100 l 1,19,-1
 600 100 l 1,20,-1
 600 0 l 1,21,-1
 0 0 l 1,12,-1
EndSplineSet
Validated: 5
EndChar

StartChar: idieresis
Encoding: 239 239 174
Width: 700
VWidth: 1400
Flags: W
LayerCount: 2
Fore
SplineSet
400 700 m 1,0,-1
 400 800 l 1,1,-1
 600 800 l 1,2,-1
 600 700 l 1,3,-1
 400 700 l 1,0,-1
0 700 m 1,4,-1
 0 800 l 1,5,-1
 200 800 l 1,6,-1
 200 700 l 1,7,-1
 0 700 l 1,4,-1
0 0 m 1,8,-1
 0 100 l 1,9,-1
 200 100 l 1,10,-1
 200 500 l 1,11,-1
 0 500 l 1,12,-1
 0 600 l 1,13,-1
 400 600 l 1,14,-1
 400 100 l 1,15,-1
 600 100 l 1,16,-1
 600 0 l 1,17,-1
 0 0 l 1,8,-1
EndSplineSet
Validated: 1
EndChar

StartChar: eth
Encoding: 240 240 175
Width: 700
VWidth: 1400
Flags: WO
LayerCount: 2
Fore
SplineSet
0 100 m 1,0,-1
 0 500 l 1,1,-1
 100 500 l 1,2,-1
 100 600 l 1,3,-1
 400 600 l 1,4,-1
 400 700 l 1,5,-1
 100 700 l 1,6,-1
 100 800 l 1,7,-1
 300 800 l 1,8,-1
 300 900 l 1,9,-1
 200 900 l 1,10,-1
 200 1000 l 1,11,-1
 400 1000 l 1,12,-1
 400 900 l 1,13,-1
 500 900 l 1,14,-1
 500 700 l 1,15,-1
 600 700 l 1,16,-1
 600 100 l 1,17,-1
 500 100 l 1,18,-1
 500 0 l 1,19,-1
 100 0 l 1,20,-1
 100 100 l 1,21,-1
 0 100 l 1,0,-1
200 100 m 1,22,-1
 400 100 l 1,23,-1
 400 500 l 1,24,-1
 200 500 l 1,25,-1
 200 100 l 1,22,-1
600 1000 m 1,26,-1
 600 900 l 1,27,-1
 500 900 l 1,28,-1
 500 1000 l 1,29,-1
 600 1000 l 1,26,-1
EndSplineSet
Validated: 5
EndChar

StartChar: ntilde
Encoding: 241 241 176
Width: 700
VWidth: 1400
Flags: W
LayerCount: 2
Fore
SplineSet
300 800 m 1,0,-1
 200 800 l 1,1,-1
 200 700 l 1,2,-1
 0 700 l 1,3,-1
 0 800 l 1,4,-1
 100 800 l 1,5,-1
 100 900 l 1,6,-1
 400 900 l 1,7,-1
 400 800 l 1,8,-1
 500 800 l 1,9,-1
 500 700 l 1,10,-1
 300 700 l 1,11,-1
 300 800 l 1,0,-1
600 900 m 1,12,-1
 600 800 l 1,13,-1
 500 800 l 1,14,-1
 500 900 l 1,15,-1
 600 900 l 1,12,-1
0 0 m 1,16,-1
 0 600 l 1,17,-1
 500 600 l 1,18,-1
 500 500 l 1,19,-1
 600 500 l 1,20,-1
 600 0 l 1,21,-1
 400 0 l 1,22,-1
 400 500 l 1,23,-1
 200 500 l 1,24,-1
 200 0 l 1,25,-1
 0 0 l 1,16,-1
EndSplineSet
Validated: 5
EndChar

StartChar: ograve
Encoding: 242 242 177
Width: 700
VWidth: 1400
Flags: W
LayerCount: 2
Fore
SplineSet
0 100 m 1,0,-1
 0 500 l 1,1,-1
 100 500 l 1,2,-1
 100 600 l 1,3,-1
 500 600 l 1,4,-1
 500 500 l 1,5,-1
 600 500 l 1,6,-1
 600 100 l 1,7,-1
 500 100 l 1,8,-1
 500 0 l 1,9,-1
 100 0 l 1,10,-1
 100 100 l 1,11,-1
 0 100 l 1,0,-1
100 800 m 1,12,-1
 100 900 l 1,13,-1
 300 900 l 1,14,-1
 300 800 l 1,15,-1
 400 800 l 1,16,-1
 400 700 l 1,17,-1
 200 700 l 1,18,-1
 200 800 l 1,19,-1
 100 800 l 1,12,-1
200 100 m 1,20,-1
 400 100 l 1,21,-1
 400 500 l 1,22,-1
 200 500 l 1,23,-1
 200 100 l 1,20,-1
EndSplineSet
Validated: 1
EndChar

StartChar: oacute
Encoding: 243 243 178
Width: 700
VWidth: 1400
Flags: W
LayerCount: 2
Fore
SplineSet
0 100 m 1,0,-1
 0 500 l 1,1,-1
 100 500 l 1,2,-1
 100 600 l 1,3,-1
 500 600 l 1,4,-1
 500 500 l 1,5,-1
 600 500 l 1,6,-1
 600 100 l 1,7,-1
 500 100 l 1,8,-1
 500 0 l 1,9,-1
 100 0 l 1,10,-1
 100 100 l 1,11,-1
 0 100 l 1,0,-1
200 100 m 1,12,-1
 400 100 l 1,13,-1
 400 500 l 1,14,-1
 200 500 l 1,15,-1
 200 100 l 1,12,-1
200 700 m 1,16,-1
 200 800 l 1,17,-1
 300 800 l 1,18,-1
 300 900 l 1,19,-1
 500 900 l 1,20,-1
 500 800 l 1,21,-1
 400 800 l 1,22,-1
 400 700 l 1,23,-1
 200 700 l 1,16,-1
EndSplineSet
Validated: 1
EndChar

StartChar: ocircumflex
Encoding: 244 244 179
Width: 700
VWidth: 1400
Flags: W
LayerCount: 2
Fore
SplineSet
100 700 m 1,0,-1
 100 800 l 1,1,-1
 200 800 l 1,2,-1
 200 900 l 1,3,-1
 400 900 l 1,4,-1
 400 800 l 1,5,-1
 500 800 l 1,6,-1
 500 700 l 1,7,-1
 400 700 l 1,8,-1
 400 800 l 1,9,-1
 300 800 l 1,10,-1
 300 700 l 1,11,-1
 100 700 l 1,0,-1
0 100 m 1,12,-1
 0 500 l 1,13,-1
 100 500 l 1,14,-1
 100 600 l 1,15,-1
 500 600 l 1,16,-1
 500 500 l 1,17,-1
 600 500 l 1,18,-1
 600 100 l 1,19,-1
 500 100 l 1,20,-1
 500 0 l 1,21,-1
 100 0 l 1,22,-1
 100 100 l 1,23,-1
 0 100 l 1,12,-1
200 100 m 1,24,-1
 400 100 l 1,25,-1
 400 500 l 1,26,-1
 200 500 l 1,27,-1
 200 100 l 1,24,-1
EndSplineSet
Validated: 5
EndChar

StartChar: otilde
Encoding: 245 245 180
Width: 700
VWidth: 1400
Flags: W
LayerCount: 2
Fore
SplineSet
300 800 m 1,0,-1
 200 800 l 1,1,-1
 200 700 l 1,2,-1
 0 700 l 1,3,-1
 0 800 l 1,4,-1
 100 800 l 1,5,-1
 100 900 l 1,6,-1
 400 900 l 1,7,-1
 400 800 l 1,8,-1
 500 800 l 1,9,-1
 500 700 l 1,10,-1
 300 700 l 1,11,-1
 300 800 l 1,0,-1
600 900 m 1,12,-1
 600 800 l 1,13,-1
 500 800 l 1,14,-1
 500 900 l 1,15,-1
 600 900 l 1,12,-1
0 100 m 1,16,-1
 0 500 l 1,17,-1
 100 500 l 1,18,-1
 100 600 l 1,19,-1
 500 600 l 1,20,-1
 500 500 l 1,21,-1
 600 500 l 1,22,-1
 600 100 l 1,23,-1
 500 100 l 1,24,-1
 500 0 l 1,25,-1
 100 0 l 1,26,-1
 100 100 l 1,27,-1
 0 100 l 1,16,-1
200 100 m 1,28,-1
 400 100 l 1,29,-1
 400 500 l 1,30,-1
 200 500 l 1,31,-1
 200 100 l 1,28,-1
EndSplineSet
Validated: 5
EndChar

StartChar: odieresis
Encoding: 246 246 181
Width: 700
VWidth: 1400
Flags: W
LayerCount: 2
Fore
SplineSet
400 700 m 1,0,-1
 400 800 l 1,1,-1
 600 800 l 1,2,-1
 600 700 l 1,3,-1
 400 700 l 1,0,-1
0 700 m 1,4,-1
 0 800 l 1,5,-1
 200 800 l 1,6,-1
 200 700 l 1,7,-1
 0 700 l 1,4,-1
0 100 m 1,8,-1
 0 500 l 1,9,-1
 100 500 l 1,10,-1
 100 600 l 1,11,-1
 500 600 l 1,12,-1
 500 500 l 1,13,-1
 600 500 l 1,14,-1
 600 100 l 1,15,-1
 500 100 l 1,16,-1
 500 0 l 1,17,-1
 100 0 l 1,18,-1
 100 100 l 1,19,-1
 0 100 l 1,8,-1
200 100 m 1,20,-1
 400 100 l 1,21,-1
 400 500 l 1,22,-1
 200 500 l 1,23,-1
 200 100 l 1,20,-1
EndSplineSet
Validated: 1
EndChar

StartChar: divide
Encoding: 247 247 182
Width: 700
VWidth: 1400
Flags: W
LayerCount: 2
Fore
SplineSet
400 200 m 1,0,-1
 400 0 l 1,1,-1
 200 0 l 1,2,-1
 200 200 l 1,3,-1
 400 200 l 1,0,-1
0 300 m 1,4,-1
 0 400 l 1,5,-1
 600 400 l 1,6,-1
 600 300 l 1,7,-1
 0 300 l 1,4,-1
400 500 m 1,8,-1
 200 500 l 1,9,-1
 200 700 l 1,10,-1
 400 700 l 1,11,-1
 400 500 l 1,8,-1
EndSplineSet
Validated: 1
EndChar

StartChar: oslash
Encoding: 248 248 183
Width: 700
VWidth: 1400
Flags: W
LayerCount: 2
Fore
SplineSet
0 100 m 1,0,-1
 0 500 l 1,1,-1
 100 500 l 1,2,-1
 100 600 l 1,3,-1
 400 600 l 1,4,-1
 400 700 l 1,5,-1
 500 700 l 1,6,-1
 500 500 l 1,7,-1
 600 500 l 1,8,-1
 600 100 l 1,9,-1
 500 100 l 1,10,-1
 500 0 l 1,11,-1
 200 0 l 1,12,-1
 200 -100 l 1,13,-1
 100 -100 l 1,14,-1
 100 100 l 1,15,-1
 0 100 l 1,0,-1
400 100 m 1,16,-1
 400 300 l 1,17,-1
 300 300 l 1,18,-1
 300 500 l 1,19,-1
 200 500 l 1,20,-1
 200 300 l 1,21,-1
 300 300 l 1,22,-1
 300 100 l 1,23,-1
 400 100 l 1,16,-1
EndSplineSet
Validated: 5
EndChar

StartChar: ugrave
Encoding: 249 249 184
Width: 700
VWidth: 1400
Flags: W
LayerCount: 2
Fore
SplineSet
0 100 m 1,0,-1
 0 600 l 1,1,-1
 200 600 l 1,2,-1
 200 100 l 1,3,-1
 400 100 l 1,4,-1
 400 600 l 1,5,-1
 600 600 l 1,6,-1
 600 0 l 1,7,-1
 100 0 l 1,8,-1
 100 100 l 1,9,-1
 0 100 l 1,0,-1
100 800 m 1,10,-1
 100 900 l 1,11,-1
 300 900 l 1,12,-1
 300 800 l 1,13,-1
 400 800 l 1,14,-1
 400 700 l 1,15,-1
 200 700 l 1,16,-1
 200 800 l 1,17,-1
 100 800 l 1,10,-1
EndSplineSet
Validated: 1
EndChar

StartChar: uacute
Encoding: 250 250 185
Width: 700
VWidth: 1400
Flags: W
LayerCount: 2
Fore
SplineSet
0 100 m 1,0,-1
 0 600 l 1,1,-1
 200 600 l 1,2,-1
 200 100 l 1,3,-1
 400 100 l 1,4,-1
 400 600 l 1,5,-1
 600 600 l 1,6,-1
 600 0 l 1,7,-1
 100 0 l 1,8,-1
 100 100 l 1,9,-1
 0 100 l 1,0,-1
200 700 m 1,10,-1
 200 800 l 1,11,-1
 300 800 l 1,12,-1
 300 900 l 1,13,-1
 500 900 l 1,14,-1
 500 800 l 1,15,-1
 400 800 l 1,16,-1
 400 700 l 1,17,-1
 200 700 l 1,10,-1
EndSplineSet
Validated: 1
EndChar

StartChar: ucircumflex
Encoding: 251 251 186
Width: 700
VWidth: 1400
Flags: W
LayerCount: 2
Fore
SplineSet
100 700 m 1,0,-1
 100 800 l 1,1,-1
 200 800 l 1,2,-1
 200 900 l 1,3,-1
 400 900 l 1,4,-1
 400 800 l 1,5,-1
 500 800 l 1,6,-1
 500 700 l 1,7,-1
 400 700 l 1,8,-1
 400 800 l 1,9,-1
 300 800 l 1,10,-1
 300 700 l 1,11,-1
 100 700 l 1,0,-1
0 100 m 1,12,-1
 0 600 l 1,13,-1
 200 600 l 1,14,-1
 200 100 l 1,15,-1
 400 100 l 1,16,-1
 400 600 l 1,17,-1
 600 600 l 1,18,-1
 600 0 l 1,19,-1
 100 0 l 1,20,-1
 100 100 l 1,21,-1
 0 100 l 1,12,-1
EndSplineSet
Validated: 5
EndChar

StartChar: udieresis
Encoding: 252 252 187
Width: 700
VWidth: 1400
Flags: W
LayerCount: 2
Fore
SplineSet
400 700 m 5,0,-1
 400 800 l 5,1,-1
 600 800 l 5,2,-1
 600 700 l 5,3,-1
 400 700 l 5,0,-1
0 700 m 5,4,-1
 0 800 l 5,5,-1
 200 800 l 5,6,-1
 200 700 l 5,7,-1
 0 700 l 5,4,-1
0 100 m 1,8,-1
 0 600 l 1,9,-1
 200 600 l 1,10,-1
 200 100 l 1,11,-1
 400 100 l 1,12,-1
 400 600 l 1,13,-1
 600 600 l 1,14,-1
 600 0 l 1,15,-1
 100 0 l 1,16,-1
 100 100 l 1,17,-1
 0 100 l 1,8,-1
EndSplineSet
Validated: 1
EndChar

StartChar: yacute
Encoding: 253 253 188
Width: 700
VWidth: 1400
Flags: W
LayerCount: 2
Fore
SplineSet
0 100 m 1,0,-1
 0 600 l 1,1,-1
 200 600 l 1,2,-1
 200 100 l 1,3,-1
 400 100 l 1,4,-1
 400 600 l 1,5,-1
 600 600 l 1,6,-1
 600 -100 l 1,7,-1
 500 -100 l 1,8,-1
 500 -200 l 1,9,-1
 100 -200 l 1,10,-1
 100 -100 l 1,11,-1
 400 -100 l 1,12,-1
 400 0 l 1,13,-1
 100 0 l 1,14,-1
 100 100 l 1,15,-1
 0 100 l 1,0,-1
200 700 m 1,16,-1
 200 800 l 1,17,-1
 300 800 l 1,18,-1
 300 900 l 1,19,-1
 500 900 l 1,20,-1
 500 800 l 1,21,-1
 400 800 l 1,22,-1
 400 700 l 1,23,-1
 200 700 l 1,16,-1
EndSplineSet
Validated: 1
EndChar

StartChar: thorn
Encoding: 254 254 189
Width: 700
VWidth: 1400
Flags: W
LayerCount: 2
Fore
SplineSet
0 -200 m 1,0,-1
 0 800 l 1,1,-1
 200 800 l 1,2,-1
 200 600 l 1,3,-1
 500 600 l 1,4,-1
 500 500 l 1,5,-1
 600 500 l 1,6,-1
 600 100 l 1,7,-1
 500 100 l 1,8,-1
 500 0 l 1,9,-1
 200 0 l 1,10,-1
 200 -200 l 1,11,-1
 0 -200 l 1,0,-1
200 100 m 1,12,-1
 400 100 l 1,13,-1
 400 500 l 1,14,-1
 200 500 l 1,15,-1
 200 100 l 1,12,-1
EndSplineSet
Validated: 1
EndChar

StartChar: ydieresis
Encoding: 255 255 190
Width: 700
VWidth: 1400
Flags: W
LayerCount: 2
Fore
SplineSet
400 700 m 1,0,-1
 400 800 l 1,1,-1
 600 800 l 1,2,-1
 600 700 l 1,3,-1
 400 700 l 1,0,-1
0 700 m 1,4,-1
 0 800 l 1,5,-1
 200 800 l 1,6,-1
 200 700 l 1,7,-1
 0 700 l 1,4,-1
0 100 m 1,8,-1
 0 600 l 1,9,-1
 200 600 l 1,10,-1
 200 100 l 1,11,-1
 400 100 l 1,12,-1
 400 600 l 1,13,-1
 600 600 l 1,14,-1
 600 -100 l 1,15,-1
 500 -100 l 1,16,-1
 500 -200 l 1,17,-1
 100 -200 l 1,18,-1
 100 -100 l 1,19,-1
 400 -100 l 1,20,-1
 400 0 l 1,21,-1
 100 0 l 1,22,-1
 100 100 l 1,23,-1
 0 100 l 1,8,-1
EndSplineSet
Validated: 1
EndChar
